<svg width="512" height="512" viewBox="0 0 512 512" fill="none" xmlns="http://www.w3.org/2000/svg">
<path d="M451.593 414.367H450.513C450.607 398.144 450.657 380.745 450.456 378.336C449.524 367.17 437.345 362.307 429.53 371.893C425.696 376.597 407.965 408.562 402.622 418.246C399.867 423.239 403.485 429.375 409.193 429.375H435.403C435.371 433.751 435.337 437.947 435.305 441.734C435.218 451.691 450.227 451.873 450.312 441.863C450.333 439.534 450.37 434.999 450.412 429.375H451.592C455.736 429.375 459.096 426.016 459.096 421.871C459.096 417.726 455.737 414.367 451.593 414.367ZM435.502 414.367H421.945C427.006 405.314 431.944 396.627 435.591 390.401C435.589 396.847 435.553 405.445 435.502 414.367Z" fill="#FDD75F"/>
<path d="M385.789 436.438C385.757 436.438 385.724 436.438 385.693 436.439C378.755 436.526 371.388 436.583 365.341 436.591C379.338 417.895 390.429 403.756 390.429 392.533C390.429 378.868 379.312 367.752 365.648 367.752C353.833 367.752 343.606 376.158 341.332 387.739C340.533 391.806 343.183 395.75 347.249 396.549C351.315 397.347 355.26 394.698 356.059 390.632C356.955 386.072 360.988 382.761 365.648 382.761C370.899 382.761 375.197 386.923 375.413 392.124C375.319 392.399 375.523 396.563 369.265 405.501C358.568 420.785 352.185 429.143 348.756 433.634C344.558 439.13 342.643 441.638 343.925 445.808C344.677 448.254 346.529 450.13 349.007 450.956C352.156 452.004 376.295 451.567 385.883 451.447C390.027 451.395 393.344 447.994 393.292 443.85C393.239 439.736 389.89 436.438 385.789 436.438Z" fill="#FDD75F"/>
<path d="M398.565 306.377C341.875 306.377 295.754 352.498 295.754 409.189C295.754 465.88 341.875 512 398.565 512C455.255 512 501.376 465.88 501.376 409.189C501.376 352.498 455.255 306.377 398.565 306.377ZM398.565 496.992C350.15 496.992 310.762 457.604 310.762 409.189C310.762 360.773 350.15 321.385 398.565 321.385C446.98 321.385 486.368 360.773 486.368 409.189C486.368 457.603 446.98 496.992 398.565 496.992Z" fill="#FDD75F"/>
<path d="M300.984 477.113H258.503L238.238 362.782L247.54 346.805C254.39 348.816 261.893 347.047 267.171 341.908C267.197 341.884 267.222 341.858 267.247 341.833L312.605 296.405C321.122 298.743 329.385 301.949 337.22 305.959C340.901 307.841 345.425 306.397 347.319 302.697C349.207 299.007 347.747 294.486 344.058 292.598C334.31 287.609 323.972 283.736 313.311 281.075L293.301 268.806C286.965 264.92 278.817 264.982 272.541 268.964L270.273 270.403C266.221 264.499 267.173 259.615 267.579 251.769C271.935 248.963 276.151 245.771 280.219 242.194C286.914 236.309 292.595 229.342 297.116 221.613H312.408C329.727 221.613 343.817 207.523 343.817 190.204V131.863C343.817 122.077 338.118 113.432 329.613 109.402V68.268C329.613 49.798 314.586 34.772 296.116 34.772H295.24C294.537 34.772 293.965 34.2 293.965 33.497C293.966 15.027 278.94 0 260.469 0H177.738C136.842 0 103.57 33.272 103.57 74.169V109.403C95.065 113.433 89.365 122.079 89.365 131.864V161.535C89.365 175.248 100.521 186.403 114.233 186.403H124.563C127.109 208.513 137.475 228.707 153.707 242.734C157.548 246.053 161.515 249.033 165.604 251.674C165.153 259.371 166.957 264.583 162.914 270.406L160.641 268.964C154.366 264.982 146.217 264.921 139.882 268.806L119.879 281.071C89.105 288.756 61.37 306.665 41.67 331.603C21.649 356.947 10.623 388.696 10.623 421.002V451.103C10.623 473.72 29.023 492.12 51.64 492.12H300.983C305.127 492.12 308.487 488.761 308.487 484.616C308.488 480.473 305.128 477.113 300.984 477.113ZM280.58 281.638C282.054 280.702 283.968 280.688 285.455 281.601L298.308 289.482L256.671 331.184C254.806 332.97 251.914 333.071 249.928 331.413C243.316 325.89 232.849 317.147 229.291 314.175C242.223 305.971 267.72 289.796 280.58 281.638ZM257.602 278.442L216.592 304.458L175.605 278.457C181.574 269.489 180.48 260.671 180.614 259.616C191.991 264.392 204.145 266.844 216.982 266.934H217.035C217.074 266.934 217.112 266.934 217.151 266.933C229.653 266.739 241.489 264.31 252.571 259.681C252.708 260.74 251.567 269.29 257.602 278.442ZM235.007 338.504L226.055 353.879H207.13L198.178 338.504L216.593 323.122L235.007 338.504ZM275.546 218.868H255.941C252.611 218.868 249.902 216.159 249.902 212.829C249.902 209.499 252.611 206.79 255.941 206.79H275.546C278.875 206.79 281.585 209.5 281.585 212.829C281.584 216.159 278.875 218.868 275.546 218.868ZM328.81 190.206C328.81 199.249 321.453 206.607 312.409 206.607H304.092C306.391 200.149 307.975 193.369 308.781 186.404H318.95C322.451 186.404 325.785 185.676 328.81 184.365V190.206ZM327.705 127.331C328.413 128.695 328.81 130.24 328.81 131.865V161.536C328.81 166.973 324.387 171.396 318.95 171.396H309.352V141.422C311.574 140.242 322.591 138.991 327.705 127.331ZM123.832 171.395H114.234C108.797 171.395 104.374 166.972 104.374 161.535V131.864C104.374 130.24 104.771 128.694 105.479 127.33C110.597 139 121.643 140.258 123.832 141.42V171.395ZM123.749 125.499C120.657 124.422 118.579 121.499 118.579 118.224C118.579 106.881 118.579 80.005 118.579 74.169C118.579 41.547 145.118 15.008 177.739 15.008H260.47C270.665 15.008 278.958 23.302 278.958 33.497C278.958 42.476 286.262 49.78 295.241 49.78H296.117C306.312 49.78 314.606 58.074 314.606 68.268V118.225C314.606 121.499 312.529 124.422 309.436 125.499C305.725 126.792 296.913 129.861 293.021 131.217C292.172 131.513 291.267 130.903 291.268 129.966L291.298 98.922C291.395 75.721 269.783 57.054 240.859 66.35C225.715 71.215 207.179 71.121 192.326 66.351C163.658 57.134 141.788 75.443 141.886 98.899L141.922 129.968C141.924 130.883 141.035 131.517 140.17 131.216C136.292 129.866 127.454 126.789 123.749 125.499ZM163.521 231.379C138.033 209.354 139.222 178.319 138.84 176.408V146.201C139.424 146.264 140.009 146.296 140.593 146.296C149.71 146.296 156.943 138.886 156.929 129.949L156.893 98.86C156.841 86.443 168.065 74.318 187.733 80.64C205.995 86.506 227.816 86.305 245.45 80.639C263.862 74.724 276.346 85.177 276.288 98.885L276.258 129.949C276.245 139.575 284.588 147.25 294.342 146.202V178.369C294.105 185.314 292.952 192.095 290.969 198.524C287.123 194.379 281.631 191.782 275.544 191.782H255.939C244.333 191.782 234.892 201.224 234.892 212.83C234.892 224.435 244.334 233.877 255.939 233.877H266.782C252.434 245.307 235.784 251.616 217 251.926C196.64 251.763 178.745 244.533 163.521 231.379ZM147.728 281.601C149.216 280.689 151.129 280.703 152.603 281.638C165.675 289.93 191.01 306.003 203.892 314.175C183.7 331.034 183.662 331.074 183.256 331.413C181.269 333.071 178.377 332.971 176.513 331.184L134.876 289.482L147.728 281.601ZM174.682 477.113H100.327V441.894C100.327 437.749 96.967 434.39 92.823 434.39C88.679 434.39 85.319 437.749 85.319 441.894V477.113H51.641C37.3 477.113 25.632 465.445 25.632 451.104V421.003C25.632 392.059 35.511 363.614 53.448 340.907C70.47 319.359 94.1851 303.669 120.578 296.405L165.937 341.834C165.962 341.859 165.987 341.885 166.013 341.909C171.279 347.037 178.778 348.821 185.644 346.806L194.946 362.783L174.682 477.113ZM189.923 477.113L209.106 368.888H224.077L243.26 477.113H189.923Z" fill="#FDD75F"/>
</svg>
