<svg id="Capa_1" enable-background="new 0 0 512 512" height="512" viewBox="0 0 512 512" width="512" xmlns="http://www.w3.org/2000/svg"><g><g><path d="m451.592 414.367h-1.08c.094-16.223.144-33.622-.057-36.031-.932-11.166-13.111-16.029-20.926-6.443-3.834 4.704-21.565 36.669-26.908 46.353-2.755 4.993.863 11.129 6.571 11.129h26.21c-.032 4.376-.066 8.572-.098 12.359-.087 9.957 14.922 10.139 15.007.129.021-2.329.058-6.864.1-12.488h1.18c4.144 0 7.504-3.359 7.504-7.504s-3.359-7.504-7.503-7.504zm-16.091 0h-13.557c5.061-9.053 9.999-17.74 13.646-23.966-.002 6.446-.038 15.044-.089 23.966z"/><path d="m385.789 436.438c-.032 0-.065 0-.096.001-6.938.087-14.305.144-20.352.152 13.997-18.696 25.088-32.835 25.088-44.058 0-13.665-11.117-24.781-24.781-24.781-11.815 0-22.042 8.406-24.316 19.987-.799 4.067 1.851 8.011 5.917 8.81 4.066.798 8.011-1.851 8.81-5.917.896-4.56 4.929-7.871 9.589-7.871 5.251 0 9.549 4.162 9.765 9.363-.094.275.11 4.439-6.148 13.377-10.697 15.284-17.08 23.642-20.509 28.133-4.198 5.496-6.113 8.004-4.831 12.174.752 2.446 2.604 4.322 5.082 5.148 3.149 1.048 27.288.611 36.876.491 4.144-.052 7.461-3.453 7.409-7.597-.053-4.114-3.402-7.412-7.503-7.412z"/><path d="m398.565 306.377c-56.69 0-102.811 46.121-102.811 102.812s46.121 102.811 102.811 102.811 102.811-46.12 102.811-102.811-46.121-102.812-102.811-102.812zm0 190.615c-48.415 0-87.803-39.388-87.803-87.803 0-48.416 39.388-87.804 87.803-87.804s87.803 39.388 87.803 87.804c0 48.414-39.388 87.803-87.803 87.803z"/><path d="m300.984 477.113h-42.481l-20.265-114.331 9.302-15.977c6.85 2.011 14.353.242 19.631-4.897.026-.024.051-.05.076-.075l45.358-45.428c8.517 2.338 16.78 5.544 24.615 9.554 3.681 1.882 8.205.438 10.099-3.262 1.888-3.69.428-8.211-3.261-10.099-9.748-4.989-20.086-8.862-30.747-11.523l-20.01-12.269c-6.336-3.886-14.484-3.824-20.76.158l-2.268 1.439c-4.052-5.904-3.1-10.788-2.694-18.634 4.356-2.806 8.572-5.998 12.64-9.575 6.695-5.885 12.376-12.852 16.897-20.581h15.292c17.319 0 31.409-14.09 31.409-31.409v-58.341c0-9.786-5.699-18.431-14.204-22.461v-41.134c0-18.47-15.027-33.496-33.497-33.496h-.876c-.703 0-1.275-.572-1.275-1.275.001-18.47-15.025-33.497-33.496-33.497h-82.731c-40.896 0-74.168 33.272-74.168 74.169v35.234c-8.505 4.03-14.205 12.676-14.205 22.461v29.671c0 13.713 11.156 24.868 24.868 24.868h10.33c2.546 22.11 12.912 42.304 29.144 56.331 3.841 3.319 7.808 6.299 11.897 8.94-.451 7.697 1.353 12.909-2.69 18.732l-2.273-1.442c-6.275-3.982-14.424-4.043-20.759-.158l-20.003 12.265c-30.774 7.685-58.509 25.594-78.209 50.532-20.021 25.344-31.047 57.093-31.047 89.399v30.101c0 22.617 18.4 41.017 41.017 41.017h249.343c4.144 0 7.504-3.359 7.504-7.504.001-4.143-3.359-7.503-7.503-7.503zm-20.404-195.475c1.474-.936 3.388-.95 4.875-.037l12.853 7.881-41.637 41.702c-1.865 1.786-4.757 1.887-6.743.229-6.612-5.523-17.079-14.266-20.637-17.238 12.932-8.204 38.429-24.379 51.289-32.537zm-22.978-3.196-41.01 26.016-40.987-26.001c5.969-8.968 4.875-17.786 5.009-18.841 11.377 4.776 23.531 7.228 36.368 7.318h.053c.039 0 .077 0 .116-.001 12.502-.194 24.338-2.623 35.42-7.252.137 1.059-1.004 9.609 5.031 18.761zm-22.595 60.062-8.952 15.375h-18.925l-8.952-15.375 18.415-15.382zm40.539-119.636h-19.605c-3.33 0-6.039-2.709-6.039-6.039s2.709-6.039 6.039-6.039h19.605c3.329 0 6.039 2.71 6.039 6.039-.001 3.33-2.71 6.039-6.039 6.039zm53.264-28.662c0 9.043-7.357 16.401-16.401 16.401h-8.317c2.299-6.458 3.883-13.238 4.689-20.203h10.169c3.501 0 6.835-.728 9.86-2.039zm-1.105-62.875c.708 1.364 1.105 2.909 1.105 4.534v29.671c0 5.437-4.423 9.86-9.86 9.86h-9.598v-29.974c2.222-1.18 13.239-2.431 18.353-14.091zm-203.873 44.064h-9.598c-5.437 0-9.86-4.423-9.86-9.86v-29.671c0-1.624.397-3.17 1.105-4.534 5.118 11.67 16.164 12.928 18.353 14.09zm-.083-45.896c-3.092-1.077-5.17-4-5.17-7.275 0-11.343 0-38.219 0-44.055 0-32.622 26.539-59.161 59.16-59.161h82.731c10.195 0 18.488 8.294 18.488 18.489 0 8.979 7.304 16.283 16.283 16.283h.876c10.195 0 18.489 8.294 18.489 18.488v49.957c0 3.274-2.077 6.197-5.17 7.274-3.711 1.293-12.523 4.362-16.415 5.718-.849.296-1.754-.314-1.753-1.251l.03-31.044c.097-23.201-21.515-41.868-50.439-32.572-15.144 4.865-33.68 4.771-48.533.001-28.668-9.217-50.538 9.092-50.44 32.548l.036 31.069c.002.915-.887 1.549-1.752 1.248-3.878-1.35-12.716-4.427-16.421-5.717zm39.772 105.88c-25.488-22.025-24.299-53.06-24.681-54.971v-30.207c.584.063 1.169.095 1.753.095 9.117 0 16.35-7.41 16.336-16.347l-.036-31.089c-.052-12.417 11.172-24.542 30.84-18.22 18.262 5.866 40.083 5.665 57.717-.001 18.412-5.915 30.896 4.538 30.838 18.246l-.03 31.064c-.013 9.626 8.33 17.301 18.084 16.253v32.167c-.237 6.945-1.39 13.726-3.373 20.155-3.846-4.145-9.338-6.742-15.425-6.742h-19.605c-11.606 0-21.047 9.442-21.047 21.048 0 11.605 9.442 21.047 21.047 21.047h10.843c-14.348 11.43-30.998 17.739-49.782 18.049-20.36-.163-38.255-7.393-53.479-20.547zm-15.793 50.222c1.488-.912 3.401-.898 4.875.037 13.072 8.292 38.407 24.365 51.289 32.537-20.192 16.859-20.23 16.899-20.636 17.238-1.987 1.658-4.879 1.558-6.743-.229l-41.637-41.702zm26.954 195.512h-74.355v-35.219c0-4.145-3.36-7.504-7.504-7.504s-7.504 3.359-7.504 7.504v35.219h-33.678c-14.341 0-26.009-11.668-26.009-26.009v-30.101c0-28.944 9.879-57.389 27.816-80.096 17.022-21.548 40.737-37.238 67.13-44.502l45.359 45.429c.025.025.05.051.076.075 5.266 5.128 12.765 6.912 19.631 4.897l9.302 15.977zm15.241 0 19.183-108.225h14.971l19.183 108.225z"/></g></g></svg>