<svg width="512" height="512" viewBox="0 0 512 512" fill="none" xmlns="http://www.w3.org/2000/svg">
<path d="M161.886 352C157.743 352 154.386 355.357 154.386 359.5V394.755H15V344.722C15 318.497 36.335 297.162 62.56 297.162H68.095L52.75 349.317C51.984 351.92 52.684 354.733 54.579 356.673L79.327 382.02C80.738 383.465 82.673 384.281 84.693 384.281C86.713 384.281 88.648 383.466 90.059 382.02L114.807 356.673C116.703 354.733 117.402 351.919 116.636 349.317L101.291 297.162H103.407C107.55 297.162 110.907 293.805 110.907 289.662C110.907 285.519 107.55 282.162 103.407 282.162H91.267H78.119H62.56C28.065 282.162 0 310.226 0 344.722V402.255C0 406.398 3.357 409.755 7.5 409.755H161.886C166.029 409.755 169.386 406.398 169.386 402.255V359.5C169.386 355.357 166.028 352 161.886 352ZM85.655 297.162L101.007 349.338L84.694 366.046L68.38 349.338L83.731 297.162H85.655Z" fill="#FDD75F"/>
<path d="M84.6937 273.251C123.486 273.251 155.046 241.691 155.046 202.899V184.461V172.597C155.046 171.342 155.01 170.096 154.945 168.858C154.93 168.578 154.9 168.301 154.881 168.022C154.818 167.053 154.747 166.087 154.646 165.13C154.615 164.838 154.57 164.55 154.535 164.259C154.423 163.314 154.301 162.372 154.152 161.438C154.105 161.148 154.047 160.861 153.997 160.571C153.836 159.642 153.665 158.717 153.468 157.801C153.404 157.504 153.33 157.209 153.262 156.913C153.057 156.016 152.84 155.123 152.601 154.239C152.515 153.92 152.421 153.604 152.33 153.286C152.088 152.439 151.834 151.598 151.562 150.765C151.447 150.413 151.326 150.064 151.206 149.714C150.936 148.933 150.656 148.158 150.36 147.39C150.209 146.997 150.055 146.607 149.897 146.217C149.612 145.514 149.315 144.819 149.007 144.128C148.812 143.688 148.615 143.248 148.411 142.812C148.123 142.199 147.823 141.593 147.518 140.989C147.269 140.495 147.022 140.001 146.761 139.513C146.489 139.004 146.203 138.504 145.918 138.003C145.601 137.443 145.287 136.881 144.955 136.33C144.737 135.969 144.506 135.618 144.282 135.262C142.178 131.909 139.786 128.725 137.121 125.746C136.967 125.573 136.818 125.396 136.662 125.225C136.103 124.613 135.525 124.016 134.943 123.422C134.685 123.159 134.43 122.893 134.169 122.634C133.631 122.101 133.079 121.58 132.522 121.063C132.189 120.754 131.855 120.447 131.517 120.145C131.248 119.905 130.993 119.653 130.72 119.417C130.64 119.341 130.557 119.268 130.473 119.195C130.354 119.092 130.233 118.994 130.081 118.872C129.867 118.692 129.652 118.521 129.437 118.343C129.425 118.333 129.412 118.322 129.4 118.312C129.083 118.05 128.767 117.784 128.45 117.532C128.195 117.329 127.939 117.131 127.685 116.933C127.399 116.712 127.102 116.494 126.81 116.275C126.78 116.253 126.751 116.231 126.721 116.208C126.527 116.063 126.339 115.917 126.141 115.772C125.843 115.555 125.544 115.339 125.235 115.12C124.841 114.843 124.444 114.573 124.046 114.304C124.024 114.289 124.002 114.274 123.98 114.259C123.921 114.219 123.864 114.178 123.805 114.139C123.454 113.905 123.104 113.67 122.727 113.427C122.296 113.15 121.86 112.88 121.391 112.593C121.35 112.567 121.31 112.544 121.268 112.519C121.178 112.464 121.088 112.41 120.997 112.355C120.724 112.188 120.45 112.018 120.185 111.864C119.846 111.665 119.502 111.472 119.159 111.281L119.015 111.201C118.837 111.101 118.65 111.001 118.471 110.901C118.326 110.821 118.183 110.74 118.038 110.662C117.875 110.572 117.72 110.483 117.551 110.393C117.376 110.301 117.2 110.212 117.025 110.123L116.782 110C116.455 109.832 116.125 109.674 115.796 109.511C115.505 109.367 115.217 109.219 114.924 109.078C114.111 108.689 113.292 108.323 112.47 107.967C112.202 107.851 111.933 107.737 111.663 107.624C110.755 107.244 109.842 106.881 108.923 106.541C108.857 106.517 108.79 106.494 108.725 106.47C103.325 104.493 97.7347 103.208 91.9967 102.619C91.9228 102.611 91.8487 102.604 91.7738 102.596C90.6728 102.487 89.5658 102.401 88.4548 102.343C88.3227 102.336 88.1908 102.332 88.0587 102.326C86.9427 102.274 85.8227 102.241 84.6967 102.241C71.5987 102.241 58.8158 105.867 47.7278 112.726C44.2058 114.905 43.1167 119.528 45.2957 123.05C47.4747 126.572 52.0978 127.66 55.6198 125.482C64.3348 120.09 74.3887 117.241 84.6957 117.241C85.7237 117.241 86.7448 117.275 87.7607 117.33C88.1697 117.352 88.5748 117.392 88.9818 117.423C89.5728 117.468 90.1637 117.515 90.7507 117.579C91.2567 117.634 91.7578 117.703 92.2598 117.771C92.7377 117.836 93.2158 117.905 93.6908 117.983C94.2308 118.072 94.7678 118.168 95.3018 118.272C95.7408 118.357 96.1777 118.452 96.6147 118.548C97.1517 118.666 97.6888 118.785 98.2197 118.919C98.6947 119.039 99.1667 119.174 99.6387 119.307C100.112 119.44 100.587 119.565 101.055 119.71C101.976 119.996 102.891 120.304 103.798 120.64C103.996 120.713 104.188 120.797 104.384 120.872C105.164 121.172 105.941 121.483 106.71 121.819C106.923 121.912 107.132 122.011 107.343 122.106C108.105 122.45 108.863 122.81 109.613 123.19C110.061 123.417 110.512 123.639 110.953 123.878C111.047 123.93 111.146 123.984 111.244 124.039C111.91 124.405 112.568 124.783 113.218 125.175C113.338 125.248 113.456 125.321 113.59 125.404C113.598 125.409 113.605 125.414 113.613 125.418C114.249 125.809 114.878 126.211 115.496 126.627C115.614 126.707 115.728 126.787 115.846 126.867C116.446 127.277 117.038 127.697 117.62 128.129C117.746 128.223 117.871 128.318 117.997 128.413C118.574 128.849 119.143 129.296 119.702 129.754C119.811 129.843 119.92 129.932 120.028 130.022C120.461 130.382 120.882 130.754 121.303 131.127C121.666 131.447 122.023 131.771 122.376 132.099C122.734 132.433 123.09 132.77 123.439 133.112C123.749 133.416 124.051 133.725 124.353 134.035C124.717 134.41 125.081 134.784 125.434 135.169C125.699 135.458 125.955 135.753 126.214 136.047C126.579 136.461 126.945 136.873 127.298 137.297C127.521 137.565 127.731 137.842 127.949 138.114C129.141 139.606 130.255 141.161 131.29 142.772C131.563 143.198 131.842 143.62 132.103 144.053C132.307 144.39 132.496 144.736 132.693 145.078C132.975 145.569 133.259 146.06 133.526 146.56C133.693 146.872 133.85 147.19 134.011 147.506C134.29 148.052 134.565 148.601 134.825 149.156C134.96 149.444 135.089 149.735 135.219 150.026C135.487 150.624 135.747 151.226 135.993 151.833C136.1 152.098 136.205 152.364 136.308 152.631C136.558 153.277 136.797 153.927 137.023 154.582C137.107 154.826 137.191 155.07 137.272 155.315C137.498 156.001 137.708 156.691 137.907 157.386C137.973 157.615 138.04 157.844 138.103 158.074C138.297 158.788 138.474 159.508 138.639 160.231C138.69 160.454 138.745 160.675 138.794 160.899C138.952 161.63 139.089 162.366 139.218 163.105C139.257 163.33 139.302 163.552 139.338 163.778C139.457 164.517 139.553 165.261 139.643 166.007C139.67 166.237 139.706 166.465 139.731 166.696C139.812 167.453 139.868 168.214 139.917 168.976C139.931 169.198 139.956 169.418 139.968 169.641C140.02 170.621 140.048 171.605 140.048 172.592V175.35C129.452 172.223 120.256 165.406 114.086 155.898C112.817 153.943 110.712 152.689 108.389 152.504C106.076 152.321 103.789 153.225 102.227 154.956C89.4297 169.137 71.1568 177.269 52.0918 177.269C44.2648 177.269 36.6338 175.945 29.3438 173.328V172.592C29.3438 162.538 32.0637 152.697 37.2097 144.133C39.3438 140.582 38.1938 135.975 34.6448 133.841C31.0928 131.709 26.4877 132.856 24.3527 136.406C17.8047 147.303 14.3438 159.816 14.3438 172.592V178.403V202.895C14.3418 241.691 45.9007 273.251 84.6937 273.251ZM29.3417 189.062C36.7057 191.18 44.3158 192.275 52.0898 192.275C72.3908 192.275 91.9567 184.731 107 171.331C115.674 181.205 127.206 188.006 140.046 190.818V202.901C140.046 233.422 115.215 258.253 84.6937 258.253C54.1727 258.253 29.3407 233.422 29.3407 202.901V189.062H29.3417Z" fill="#FDD75F"/>
<path d="M340.821 306.313C341.021 302.176 337.83 298.66 333.693 298.459C329.515 298.257 326.039 301.45 325.839 305.588C325.251 317.723 322.006 326.127 317.157 328.069C316.381 328.381 315.521 328.546 314.555 328.561C314.024 328.57 313.464 328.535 312.857 328.444C311.133 328.192 309.199 327.533 307.116 326.491C307.113 326.489 307.11 326.487 307.106 326.486C296.494 321.158 284.324 307.383 273.456 289.172C271.532 285.947 269.651 282.578 267.825 279.098L278.329 274.89C290.499 270.017 296.433 256.151 291.558 243.981V243.98C289.197 238.084 284.681 233.462 278.842 230.964C273.005 228.466 266.541 228.39 260.648 230.752L250.144 234.96C242.954 209.839 241.138 186.72 245.845 173.558C245.845 173.557 245.845 173.556 245.846 173.555C246.636 171.355 247.58 169.544 248.673 168.146C249.028 167.688 249.406 167.274 249.834 166.883C250.52 166.25 251.236 165.788 252.023 165.473C257.674 163.208 267.596 168.735 277.911 179.903C290.348 193.366 302.216 213.31 311.329 236.06C316.837 249.808 321.03 263.956 323.456 276.977C324.214 281.049 328.125 283.739 332.203 282.976C336.274 282.217 338.961 278.301 338.202 274.229C335.561 260.057 331.205 245.338 325.253 230.482C315.477 206.076 302.576 184.499 288.93 169.724C273.629 153.16 258.542 146.703 246.446 151.549C243.965 152.543 241.679 153.995 239.691 155.834C238.665 156.77 237.698 157.82 236.837 158.933C234.901 161.41 233.278 164.417 231.982 167.852L195.586 236.736L152.554 253.975C130.844 262.671 120.256 287.41 128.953 309.121C133.166 319.637 141.223 327.882 151.632 332.337C152.292 332.62 152.957 332.886 153.626 333.134C153.848 333.216 154.072 333.286 154.295 333.365C154.744 333.523 155.192 333.684 155.644 333.827C155.91 333.911 156.178 333.981 156.445 334.06C156.857 334.181 157.269 334.307 157.684 334.415C157.968 334.49 158.255 334.551 158.541 334.619C158.941 334.715 159.34 334.814 159.742 334.898C160.037 334.96 160.333 335.008 160.629 335.064C161.024 335.138 161.418 335.215 161.815 335.277C162.117 335.324 162.42 335.36 162.722 335.4C163.113 335.453 163.504 335.508 163.896 335.55C164.203 335.583 164.511 335.604 164.819 335.63C165.208 335.663 165.597 335.697 165.987 335.719C166.297 335.736 166.608 335.742 166.919 335.753C167.306 335.766 167.693 335.78 168.081 335.783C168.159 335.783 168.236 335.789 168.314 335.789C168.582 335.789 168.849 335.775 169.116 335.77C169.445 335.764 169.774 335.76 170.104 335.746C170.147 335.744 170.19 335.745 170.233 335.743L181.601 364.12C183.614 369.145 187.463 373.086 192.44 375.216C195.002 376.313 197.705 376.862 200.411 376.862C202.96 376.862 205.512 376.374 207.95 375.397C212.975 373.384 216.916 369.535 219.046 364.558C221.176 359.581 221.24 354.074 219.227 349.048L208.734 322.854L227.133 315.483L300.936 340.16C304.273 341.772 307.55 342.828 310.658 343.283C311.905 343.471 313.155 343.566 314.35 343.566C314.516 343.566 314.682 343.564 314.846 343.56C317.604 343.516 320.259 342.989 322.74 341.995C330.346 338.945 339.66 330.281 340.821 306.313ZM266.227 244.676C268.405 243.804 270.79 243.833 272.942 244.754C275.096 245.676 276.763 247.382 277.635 249.557C279.434 254.049 277.243 259.167 272.752 260.966L261.282 265.56C261.168 265.303 261.054 265.046 260.941 264.788C260.567 263.938 260.198 263.086 259.835 262.232C259.681 261.87 259.526 261.51 259.373 261.146C258.86 259.924 258.354 258.701 257.864 257.477C257.375 256.257 256.898 255.026 256.427 253.791C256.284 253.416 256.144 253.041 256.003 252.665C255.676 251.796 255.355 250.924 255.038 250.049C254.944 249.789 254.85 249.529 254.757 249.269L266.227 244.676ZM142.875 303.542C137.254 289.51 144.098 273.52 158.13 267.898L181.897 258.377C185.582 276.537 192.414 293.592 202.287 309.273L178.519 318.794C176.955 319.421 175.297 319.909 173.595 320.246C173.553 320.254 173.513 320.269 173.471 320.278C168.141 321.309 162.634 320.733 157.539 318.546C150.806 315.667 145.598 310.337 142.875 303.542ZM205.253 358.654C204.699 359.947 203.676 360.947 202.369 361.47C201.062 361.993 199.632 361.976 198.34 361.423C197.046 360.869 196.046 359.845 195.523 358.539L185.03 332.346L194.807 328.429L205.3 354.623C205.823 355.93 205.806 357.361 205.253 358.654ZM229.274 300.382C227.589 299.819 225.757 299.871 224.107 300.533L216.48 303.588C206.274 288.05 199.435 270.977 196.091 252.69L203.718 249.635C205.368 248.974 206.73 247.748 207.56 246.177L228.954 205.689C228.967 205.816 228.985 205.947 228.998 206.074C229.066 206.713 229.143 207.358 229.219 208.003C229.268 208.413 229.313 208.82 229.366 209.232C229.456 209.941 229.556 210.658 229.657 211.374C229.707 211.731 229.753 212.085 229.805 212.444C229.938 213.349 230.083 214.261 230.232 215.178C230.261 215.355 230.286 215.529 230.315 215.706C230.5 216.815 230.697 217.933 230.905 219.058C230.939 219.242 230.978 219.429 231.013 219.613C231.189 220.544 231.369 221.477 231.561 222.418C231.635 222.78 231.716 223.146 231.792 223.509C231.953 224.277 232.115 225.045 232.287 225.819C232.381 226.243 232.482 226.67 232.579 227.095C232.744 227.817 232.91 228.539 233.084 229.265C233.193 229.72 233.307 230.177 233.42 230.633C233.593 231.333 233.767 232.034 233.948 232.738C234.071 233.217 234.198 233.697 234.326 234.177C234.509 234.868 234.694 235.559 234.884 236.253C235.019 236.743 235.156 237.233 235.294 237.724C235.489 238.414 235.687 239.106 235.889 239.8C236.034 240.298 236.181 240.797 236.331 241.296C236.538 241.989 236.75 242.683 236.965 243.379C237.12 243.88 237.275 244.381 237.434 244.883C237.655 245.584 237.883 246.287 238.112 246.99C238.275 247.49 238.437 247.99 238.604 248.492C238.842 249.206 239.086 249.921 239.332 250.637C239.501 251.13 239.668 251.622 239.84 252.116C240.099 252.858 240.367 253.601 240.635 254.345C240.804 254.814 240.969 255.283 241.142 255.753C241.444 256.577 241.756 257.403 242.069 258.229C242.216 258.618 242.358 259.005 242.507 259.395C242.974 260.613 243.451 261.832 243.94 263.053C244.428 264.271 244.923 265.479 245.425 266.679C245.598 267.095 245.777 267.504 245.952 267.917C246.283 268.698 246.614 269.48 246.951 270.254C247.162 270.739 247.377 271.217 247.59 271.699C247.897 272.393 248.204 273.087 248.515 273.774C248.745 274.282 248.979 274.785 249.212 275.29C249.512 275.941 249.812 276.592 250.116 277.236C250.359 277.752 250.605 278.262 250.85 278.774C251.15 279.399 251.45 280.023 251.754 280.642C252.006 281.157 252.261 281.668 252.515 282.178C252.817 282.783 253.119 283.385 253.424 283.983C253.683 284.491 253.943 284.997 254.205 285.501C254.513 286.094 254.822 286.684 255.133 287.271C255.396 287.768 255.66 288.263 255.925 288.755C256.239 289.337 256.554 289.914 256.871 290.489C257.137 290.972 257.403 291.456 257.671 291.934C257.995 292.513 258.322 293.085 258.648 293.656C258.913 294.119 259.177 294.584 259.444 295.042C259.778 295.617 260.116 296.184 260.453 296.751C260.717 297.195 260.98 297.642 261.245 298.081C261.597 298.663 261.952 299.235 262.306 299.808C262.559 300.218 262.811 300.633 263.066 301.038C263.468 301.678 263.874 302.306 264.279 302.935C264.489 303.261 264.698 303.594 264.909 303.917C265.517 304.847 266.128 305.765 266.743 306.669C266.978 307.015 267.216 307.35 267.451 307.692C267.841 308.257 268.23 308.824 268.622 309.378C268.906 309.78 269.193 310.171 269.478 310.567C269.824 311.046 270.169 311.529 270.516 312C270.821 312.414 271.128 312.818 271.435 313.226C271.764 313.664 272.093 314.103 272.424 314.533C272.517 314.654 272.608 314.78 272.701 314.899L229.274 300.382Z" fill="#FDD75F"/>
<path d="M476.894 220.894C460.111 220.894 446.048 232.736 442.602 248.5H403.673C401.891 193.68 380.595 142.24 343.08 102.205L370.598 74.6883C376.202 78.2983 382.725 80.2413 389.551 80.2413C398.928 80.2413 407.744 76.5903 414.374 69.9593C421.005 63.3283 424.657 54.5133 424.657 45.1353C424.657 35.7583 421.006 26.9423 414.375 20.3113C407.744 13.6803 398.928 10.0293 389.551 10.0293C380.173 10.0293 371.358 13.6813 364.727 20.3113C358.096 26.9423 354.445 35.7583 354.445 45.1353C354.445 51.9573 356.387 58.4773 359.993 64.0793L327.257 96.8153C325.851 98.2223 325.061 100.129 325.061 102.119C325.061 104.109 325.851 106.015 327.257 107.423C366.95 147.114 388.811 199.879 388.811 255.994C388.811 312.109 366.951 364.874 327.257 404.565C326.524 405.299 325.958 406.172 325.584 407.123C325.249 407.971 325.063 408.894 325.061 409.859V409.86C325.061 409.864 325.061 409.867 325.061 409.871C325.061 409.875 325.061 409.879 325.061 409.883C325.061 409.887 325.061 409.891 325.061 409.895C325.061 409.899 325.061 409.902 325.061 409.905C325.061 409.906 325.061 409.906 325.061 409.907C325.066 411.345 325.474 412.686 326.18 413.825C326.483 414.315 326.844 414.773 327.258 415.188L359.997 447.915C356.388 453.519 354.445 460.041 354.445 466.865C354.445 476.242 358.096 485.058 364.727 491.688C371.358 498.319 380.173 501.971 389.551 501.971C398.928 501.971 407.744 498.32 414.375 491.689C421.006 485.058 424.657 476.242 424.657 466.865C424.657 457.487 421.005 448.672 414.375 442.041C407.744 435.41 398.928 431.759 389.551 431.759C382.728 431.759 376.207 433.701 370.604 437.308L343.074 409.789C380.59 369.756 401.887 318.319 403.672 263.5H442.601C446.047 279.265 460.109 291.106 476.893 291.106C496.251 291.106 512 275.357 512 256C512 236.643 496.251 220.894 476.894 220.894ZM375.334 30.9183C375.334 30.9173 375.334 30.9173 375.334 30.9183C379.131 27.1203 384.18 25.0283 389.551 25.0283C394.921 25.0283 399.971 27.1203 403.768 30.9183C407.566 34.7153 409.658 39.7653 409.658 45.1353C409.658 50.5063 407.566 55.5553 403.768 59.3523C399.971 63.1503 394.921 65.2423 389.551 65.2423C384.193 65.2423 379.157 63.1593 375.363 59.3793C375.353 59.3693 375.344 59.3573 375.334 59.3473C375.324 59.3373 375.314 59.3303 375.305 59.3203C371.528 55.5273 369.446 50.4923 369.446 45.1363C369.444 39.7653 371.536 34.7153 375.334 30.9183ZM403.768 452.648C403.769 452.648 403.769 452.648 403.768 452.648C407.566 456.445 409.658 461.494 409.658 466.865C409.658 472.235 407.566 477.285 403.768 481.082C399.971 484.88 394.921 486.972 389.551 486.972C384.18 486.972 379.131 484.88 375.334 481.082C371.536 477.285 369.444 472.235 369.444 466.865C369.444 461.494 371.536 456.445 375.334 452.647C379.131 448.85 384.18 446.758 389.551 446.758C394.921 446.759 399.971 448.851 403.768 452.648ZM476.894 276.106C465.807 276.106 456.788 267.086 456.788 256C456.788 244.914 465.808 235.894 476.894 235.894C487.98 235.894 497 244.913 497 256C497 267.087 487.98 276.106 476.894 276.106Z" fill="#FDD75F"/>
</svg>
