<?xml version="1.0"?>
<svg xmlns="http://www.w3.org/2000/svg" viewBox="0 0 64 64" width="512" height="512"><g id="Check_list" data-name="Check list"><path d="M17,21V31a1,1,0,0,0,.54.888l8,4.139a.987.987,0,0,0,.46.113,1,1,0,0,0,.451-.108l8-4.04A1,1,0,0,0,35,31.1V21a1,1,0,0,0-.553-.895l-8-4a1,1,0,0,0-.894,0l-8,4A1,1,0,0,0,17,21Zm2,1.618,2,1V27h2V24.618l2,1V33.5l-6-3.1Zm8,10.9v-7.9l6-3v7.866Zm-1-15.4L31.764,21,26,23.882,24.236,23,26.447,21.9l-.894-1.79L22,21.882,20.236,21Z"/><path d="M38,23h8a1,1,0,0,0,0-2H38a1,1,0,0,0,0,2Z"/><path d="M38,27h8a1,1,0,0,0,0-2H38a1,1,0,0,0,0,2Z"/><path d="M38,31h8a1,1,0,0,0,0-2H38a1,1,0,0,0,0,2Z"/><path d="M54,6H42V5a1,1,0,0,0-1-1H35.461a3.995,3.995,0,0,0-6.922,0H23a1,1,0,0,0-1,1V6H10A1,1,0,0,0,9,7V61a1,1,0,0,0,1,1H54a1,1,0,0,0,1-1V7A1,1,0,0,0,54,6ZM24,6h5.18a1,1,0,0,0,.946-.676,1.988,1.988,0,0,1,3.748,0A1,1,0,0,0,34.82,6H40v6H24Zm-1,8H41a1,1,0,0,0,1-1V12h7V48H42a1,1,0,0,0-1,1v7H15V12h7v1A1,1,0,0,0,23,14ZM47.586,50,43,54.586V50ZM53,60H11V8H22v2H14a1,1,0,0,0-1,1V57a1,1,0,0,0,1,1H42a1,1,0,0,0,.707-.293l8-8A1,1,0,0,0,51,49V11a1,1,0,0,0-1-1H42V8H53Z"/><path d="M29.4,42.2,27,44V43a1,1,0,0,0-1-1H18a1,1,0,0,0-1,1v8a1,1,0,0,0,1,1h8a1,1,0,0,0,1-1V46.5l3.6-2.7a1,1,0,0,0-1.2-1.6ZM25,50H19V44h6v1.5l-2.906,2.18-1.387-1.387a1,1,0,1,0-1.414,1.414l2,2A1,1,0,0,0,22.6,49.8L25,48Z"/><path d="M33,45h1a1,1,0,0,0,0-2H33a1,1,0,0,0,0,2Z"/><path d="M37,45h8a1,1,0,0,0,0-2H37a1,1,0,0,0,0,2Z"/><path d="M39,46H33a1,1,0,0,0,0,2h6a1,1,0,0,0,0-2Z"/><path d="M37,50H33a1,1,0,0,0,0,2h4a1,1,0,0,0,0-2Z"/></g></svg>
