<svg width="512" height="512" viewBox="0 0 512 512" fill="none" xmlns="http://www.w3.org/2000/svg">
<path d="M136 168V248C136 249.466 136.403 250.904 137.165 252.157C137.926 253.41 139.018 254.429 140.32 255.104L204.32 288.216C205.455 288.811 206.718 289.122 208 289.12C209.254 289.119 210.49 288.823 211.608 288.256L275.608 255.936C276.928 255.269 278.038 254.249 278.813 252.989C279.588 251.729 279.999 250.279 280 248.8V168C280.001 166.513 279.587 165.056 278.806 163.791C278.024 162.526 276.906 161.504 275.576 160.84L211.576 128.84C210.466 128.285 209.241 127.996 208 127.996C206.759 127.996 205.534 128.285 204.424 128.84L140.424 160.84C139.094 161.504 137.976 162.526 137.194 163.791C136.413 165.056 135.999 166.513 136 168ZM152 180.944L168 188.944V216H184V196.944L200 204.944V268L152 243.2V180.944ZM216 268.144V204.944L264 180.944V243.872L216 268.144ZM208 144.944L254.112 168L208 191.056L193.888 184L211.576 175.2L204.424 160.88L176 175.056L161.888 168L208 144.944Z" fill="#FBDE85"/>
<path d="M304 184H368C370.122 184 372.157 183.157 373.657 181.657C375.157 180.157 376 178.122 376 176C376 173.878 375.157 171.843 373.657 170.343C372.157 168.843 370.122 168 368 168H304C301.878 168 299.843 168.843 298.343 170.343C296.843 171.843 296 173.878 296 176C296 178.122 296.843 180.157 298.343 181.657C299.843 183.157 301.878 184 304 184Z" fill="#FBDE85"/>
<path d="M304 216H368C370.122 216 372.157 215.157 373.657 213.657C375.157 212.157 376 210.122 376 208C376 205.878 375.157 203.843 373.657 202.343C372.157 200.843 370.122 200 368 200H304C301.878 200 299.843 200.843 298.343 202.343C296.843 203.843 296 205.878 296 208C296 210.122 296.843 212.157 298.343 213.657C299.843 215.157 301.878 216 304 216Z" fill="#FBDE85"/>
<path d="M304 248H368C370.122 248 372.157 247.157 373.657 245.657C375.157 244.157 376 242.122 376 240C376 237.878 375.157 235.843 373.657 234.343C372.157 232.843 370.122 232 368 232H304C301.878 232 299.843 232.843 298.343 234.343C296.843 235.843 296 237.878 296 240C296 242.122 296.843 244.157 298.343 245.657C299.843 247.157 301.878 248 304 248Z" fill="#FBDE85"/>
<path d="M432 48H336V40C336 37.8782 335.157 35.8434 333.657 34.3431C332.157 32.8428 330.122 32 328 32H283.688C280.884 27.1368 276.849 23.0979 271.989 20.2897C267.128 17.4814 261.613 16.0029 256 16.0029C250.387 16.0029 244.872 17.4814 240.011 20.2897C235.151 23.0979 231.116 27.1368 228.312 32H184C181.878 32 179.843 32.8428 178.343 34.3431C176.843 35.8434 176 37.8782 176 40V48H80C77.8783 48 75.8434 48.8428 74.3431 50.3431C72.8429 51.8434 72 53.8782 72 56V488C72 490.122 72.8429 492.157 74.3431 493.657C75.8434 495.157 77.8783 496 80 496H432C434.122 496 436.157 495.157 437.657 493.657C439.157 492.157 440 490.122 440 488V56C440 53.8782 439.157 51.8434 437.657 50.3431C436.157 48.8428 434.122 48 432 48ZM192 48H233.44C235.108 47.9999 236.734 47.4785 238.091 46.5089C239.448 45.5393 240.468 44.1698 241.008 42.592C242.105 39.4929 244.136 36.81 246.821 34.9125C249.506 33.015 252.712 31.9962 256 31.9962C259.288 31.9962 262.494 33.015 265.179 34.9125C267.864 36.81 269.895 39.4929 270.992 42.592C271.532 44.1698 272.552 45.5393 273.909 46.5089C275.266 47.4785 276.892 47.9999 278.56 48H320V96H192V48ZM184 112H328C330.122 112 332.157 111.157 333.657 109.657C335.157 108.157 336 106.122 336 104V96H392V384H336C333.878 384 331.843 384.843 330.343 386.343C328.843 387.843 328 389.878 328 392V448H120V96H176V104C176 106.122 176.843 108.157 178.343 109.657C179.843 111.157 181.878 112 184 112ZM380.688 400L344 436.688V400H380.688ZM424 480H88V64H176V80H112C109.878 80 107.843 80.8428 106.343 82.3431C104.843 83.8434 104 85.8782 104 88V456C104 458.122 104.843 460.157 106.343 461.657C107.843 463.157 109.878 464 112 464H336C338.122 464 340.156 463.156 341.656 461.656L405.656 397.656C407.156 396.156 408 394.122 408 392V88C408 85.8782 407.157 83.8434 405.657 82.3431C404.157 80.8428 402.122 80 400 80H336V64H424V480Z" fill="#FBDE85"/>
<path d="M235.2 337.6L216 352V344C216 341.878 215.157 339.843 213.657 338.343C212.157 336.843 210.122 336 208 336H144C141.878 336 139.843 336.843 138.343 338.343C136.843 339.843 136 341.878 136 344V408C136 410.122 136.843 412.157 138.343 413.657C139.843 415.157 141.878 416 144 416H208C210.122 416 212.157 415.157 213.657 413.657C215.157 412.157 216 410.122 216 408V372L244.8 350.4C245.64 349.77 246.349 348.98 246.884 348.076C247.419 347.172 247.771 346.171 247.92 345.131C248.068 344.091 248.01 343.032 247.75 342.015C247.489 340.997 247.03 340.04 246.4 339.2C245.77 338.36 244.98 337.651 244.076 337.116C243.172 336.581 242.171 336.229 241.131 336.08C240.091 335.932 239.032 335.99 238.015 336.25C236.997 336.511 236.04 336.97 235.2 337.6V337.6ZM200 400H152V352H200V364L176.752 381.44L165.656 370.344C164.918 369.58 164.035 368.97 163.059 368.551C162.083 368.132 161.033 367.911 159.971 367.902C158.909 367.893 157.856 368.095 156.872 368.497C155.889 368.9 154.996 369.494 154.245 370.245C153.494 370.996 152.9 371.889 152.497 372.872C152.095 373.856 151.893 374.909 151.902 375.971C151.911 377.033 152.132 378.083 152.551 379.059C152.97 380.035 153.58 380.918 154.344 381.656L170.344 397.656C171.706 399.018 173.512 399.842 175.433 399.979C177.354 400.116 179.259 399.555 180.8 398.4L200 384V400Z" fill="#FBDE85"/>
<path d="M264 360H272C274.122 360 276.157 359.157 277.657 357.657C279.157 356.157 280 354.122 280 352C280 349.878 279.157 347.843 277.657 346.343C276.157 344.843 274.122 344 272 344H264C261.878 344 259.843 344.843 258.343 346.343C256.843 347.843 256 349.878 256 352C256 354.122 256.843 356.157 258.343 357.657C259.843 359.157 261.878 360 264 360Z" fill="#FBDE85"/>
<path d="M296 360H360C362.122 360 364.157 359.157 365.657 357.657C367.157 356.157 368 354.122 368 352C368 349.878 367.157 347.843 365.657 346.343C364.157 344.843 362.122 344 360 344H296C293.878 344 291.843 344.843 290.343 346.343C288.843 347.843 288 349.878 288 352C288 354.122 288.843 356.157 290.343 357.657C291.843 359.157 293.878 360 296 360Z" fill="#FBDE85"/>
<path d="M312 368H264C261.878 368 259.843 368.843 258.343 370.343C256.843 371.843 256 373.878 256 376C256 378.122 256.843 380.157 258.343 381.657C259.843 383.157 261.878 384 264 384H312C314.122 384 316.157 383.157 317.657 381.657C319.157 380.157 320 378.122 320 376C320 373.878 319.157 371.843 317.657 370.343C316.157 368.843 314.122 368 312 368Z" fill="#FBDE85"/>
<path d="M296 400H264C261.878 400 259.843 400.843 258.343 402.343C256.843 403.843 256 405.878 256 408C256 410.122 256.843 412.157 258.343 413.657C259.843 415.157 261.878 416 264 416H296C298.122 416 300.157 415.157 301.657 413.657C303.157 412.157 304 410.122 304 408C304 405.878 303.157 403.843 301.657 402.343C300.157 400.843 298.122 400 296 400Z" fill="#FBDE85"/>
</svg>
