<svg width="512" height="512" viewBox="0 0 512 512" fill="none" xmlns="http://www.w3.org/2000/svg">
<path d="M316 76C316 42.916 289.084 16 256 16C222.916 16 196 42.916 196 76C196 109.084 222.916 136 256 136C289.084 136 316 109.084 316 76ZM256 116C233.944 116 216 98.056 216 76C216 53.944 233.944 36 256 36C278.056 36 296 53.944 296 76C296 98.056 278.056 116 256 116Z" fill="#FBDE85"/>
<path d="M346 266V226C346 176.374 305.626 136 256 136C206.374 136 166 176.374 166 226V266C166 271.523 170.478 276 176 276H336C341.522 276 346 271.523 346 266ZM326 256H186V226C186 187.402 217.402 156 256 156C294.598 156 326 187.402 326 226V256Z" fill="#FBDE85"/>
<path d="M71.858 408.114L120 432.181V486C120 491.523 124.478 496 130 496H236C241.522 496 246 491.523 246 486V358.78C246 326.997 222.548 299.577 192.609 296.357C191.814 296.207 153.96 293.386 135.661 275.099L108.281 247.72C100.725 240.162 90.681 236 80 236V156C80 133.944 62.056 116 40 116C17.944 116 0 133.944 0 156V291.84C0 341.052 27.798 386.079 71.858 408.114V408.114ZM20 156C20 144.972 28.972 136 40 136C51.028 136 60 144.972 60 156V241.361C47.804 248.413 40 261.561 40 276C40 286.68 44.162 296.723 51.719 304.28L102.929 355.5C106.832 359.405 113.165 359.407 117.071 355.501C120.976 351.596 120.977 345.265 117.072 341.359L65.862 290.138C62.082 286.359 60 281.338 60 276C60 267.536 65.357 259.956 73.332 257.139C73.335 257.138 73.338 257.136 73.341 257.135H73.342C80.222 254.696 88.408 256.13 94.139 261.861L121.522 289.244C140.172 307.881 167.353 313.123 190.358 316.23C190.395 316.234 190.433 316.239 190.471 316.243C210.394 318.385 226 337.07 226 358.78V476H140V426C140 422.212 137.859 418.749 134.472 417.056L80.803 390.226C43.299 371.469 20 333.77 20 291.84V156Z" fill="#FBDE85"/>
<path d="M459 394C464.523 394 469 389.523 469 384C469 378.477 464.523 374 459 374C453.477 374 449 378.477 449 384C449 389.523 453.477 394 459 394Z" fill="#FBDE85"/>
<path d="M472 116C449.944 116 432 133.944 432 156V236C421.319 236 411.275 240.162 403.719 247.719L376.342 275.096C360.382 291.045 334.494 293.704 319.391 296.358C289.452 299.578 266 326.997 266 358.78V486C266 491.523 270.478 496 276 496H382C387.522 496 392 491.523 392 486V432.181L424.73 415.819C429.669 413.349 431.672 407.343 429.203 402.402C426.734 397.463 420.729 395.46 415.787 397.929L377.528 417.054C374.141 418.749 372 422.212 372 426V476H286V358.78C286 337.07 301.606 318.385 321.529 316.242C321.567 316.238 321.605 316.234 321.642 316.229C345.003 313.074 371.848 307.861 390.481 289.241L417.861 261.861C423.585 256.137 431.774 254.695 438.658 257.135H438.659C438.662 257.136 438.665 257.138 438.668 257.139C446.643 259.956 452 267.536 452 276C452 281.338 449.918 286.359 446.139 290.14L394.929 341.36C391.024 345.266 391.025 351.597 394.93 355.502C398.834 359.406 405.167 359.407 409.072 355.501L460.282 304.281C467.838 296.723 472 286.68 472 276C472 261.561 464.196 248.413 452 241.361V156C452 144.972 460.972 136 472 136C483.028 136 492 144.972 492 156V291.84C492 310.136 487.383 328.3 478.647 344.368C476.008 349.22 477.803 355.292 482.656 357.93C487.507 360.567 493.58 358.773 496.218 353.921C506.543 334.931 512 313.463 512 291.84V156C512 133.944 494.056 116 472 116V116Z" fill="#FBDE85"/>
</svg>
