<svg width="512" height="512" viewBox="0 0 512 512" fill="none" xmlns="http://www.w3.org/2000/svg">
<g clip-path="url(#clip0)">
<path d="M212.58 199.683C208.438 199.683 205.08 203.041 205.08 207.183V299.826C205.08 303.968 208.438 307.326 212.58 307.326H386.378C390.52 307.326 393.878 303.968 393.878 299.826V125.866C393.878 121.724 390.52 118.366 386.378 118.366H212.58C208.438 118.366 205.08 121.724 205.08 125.866V172.339C205.08 176.481 208.438 179.839 212.58 179.839C216.722 179.839 220.08 176.481 220.08 172.339V133.366H264.356V206.161C264.356 208.743 265.684 211.143 267.871 212.515C270.059 213.886 272.796 214.038 275.121 212.913L299.479 201.135L323.837 212.913C324.871 213.413 325.988 213.661 327.101 213.661C328.489 213.661 329.873 213.276 331.087 212.515C333.274 211.143 334.602 208.743 334.602 206.161V133.366H378.878V292.326H220.08V207.183C220.08 203.041 216.722 199.683 212.58 199.683V199.683ZM319.601 194.203L302.743 186.052C301.712 185.553 300.595 185.304 299.478 185.304C298.361 185.304 297.244 185.554 296.213 186.052L279.355 194.203V133.365H319.601V194.203Z" fill="#FDD75F"/>
<path d="M322.831 258.373C326.973 258.373 330.331 255.015 330.331 250.873C330.331 246.731 326.973 243.373 322.831 243.373H276.127C271.985 243.373 268.627 246.731 268.627 250.873C268.627 255.015 271.985 258.373 276.127 258.373H322.831Z" fill="#FDD75F"/>
<path d="M280.245 388.797C286.589 389.482 293.059 389.828 299.478 389.828C397.285 389.828 476.856 310.271 476.856 212.483C476.856 114.695 397.285 35.1377 299.478 35.1377C201.671 35.1377 122.1 114.695 122.1 212.483C122.1 250.584 134.004 286.896 156.525 317.493C178.591 347.473 208.86 369.433 244.06 380.998C247.993 382.292 252.233 380.149 253.526 376.214C254.818 372.279 252.677 368.041 248.741 366.748C216.523 356.163 188.812 336.056 168.605 308.602C147.994 280.6 137.1 247.362 137.1 212.483C137.1 122.965 209.943 50.1377 299.478 50.1377C389.013 50.1377 461.856 122.966 461.856 212.483C461.856 302 389.013 374.828 299.478 374.828C293.594 374.828 287.665 374.51 281.853 373.884C277.735 373.436 274.037 376.418 273.592 380.536C273.147 384.654 276.127 388.353 280.245 388.797V388.797Z" fill="#FDD75F"/>
<path d="M453.32 65.886C450.462 62.888 445.714 62.775 442.716 65.634C439.718 68.492 439.606 73.239 442.464 76.238C477.632 113.12 497 161.506 497 212.483C497 321.376 408.392 409.966 299.477 409.966C190.562 409.966 101.954 321.376 101.954 212.483C101.954 103.59 190.563 15 299.477 15C342.833 15 383.979 28.776 418.466 54.84C421.772 57.338 426.475 56.683 428.971 53.379C431.469 50.074 430.814 45.371 427.51 42.874C390.397 14.825 346.124 0 299.477 0C182.292 0 86.9552 95.319 86.9552 212.483C86.9552 268.465 108.721 319.46 144.236 357.452L132.718 368.968C124.113 364.55 113.375 365.711 105.847 372.575L92.1802 385.035C89.1192 387.826 88.9002 392.569 91.6912 395.63C94.4812 398.691 99.2252 398.909 102.286 396.119L115.953 383.659C119.43 380.489 124.76 380.612 128.088 383.938C131.415 387.264 131.537 392.591 128.368 396.066L58.3402 472.843L39.1642 453.671L77.0132 419.162C80.0742 416.371 80.2932 411.628 77.5022 408.567C74.7112 405.505 69.9672 405.287 66.9072 408.078L9.71517 460.222C3.64517 465.757 0.197172 473.327 0.0081716 481.539C-0.180828 489.751 2.91417 497.472 8.72317 503.279C14.3652 508.919 21.8102 512 29.7562 512C29.9922 512 30.2292 511.997 30.4662 511.992C38.6782 511.803 46.2492 508.357 51.7842 502.288L139.45 406.175C146.221 398.75 147.444 388.205 143.236 379.662L154.855 368.046C192.815 403.348 243.668 424.967 299.477 424.967C416.663 424.966 512 329.646 512 212.483C512 157.633 491.161 105.571 453.32 65.886V65.886ZM30.1212 496.996C26.0562 497.074 22.2122 495.554 19.3292 492.672C16.4462 489.79 14.9112 485.959 15.0042 481.884C15.0982 477.809 16.8082 474.052 19.8212 471.306L28.0672 463.788L48.2202 483.937L40.7022 492.18C37.9552 495.192 34.1972 496.902 30.1212 496.996V496.996Z" fill="#FDD75F"/>
</g>
<defs>
<clipPath id="clip0">
<rect width="512" height="512" fill="white"/>
</clipPath>
</defs>
</svg>
