<svg width="18" height="18" viewBox="0 0 18 18" fill="none" xmlns="http://www.w3.org/2000/svg">
<path d="M11.7 5.69995H6.3C6.22043 5.69995 6.14413 5.73156 6.08787 5.78782C6.03161 5.84408 6 5.92039 6 5.99995V13.1999C6 13.2795 6.03161 13.3558 6.08787 13.4121C6.14413 13.4683 6.22043 13.4999 6.3 13.4999H11.7C11.7796 13.4999 11.8559 13.4683 11.9121 13.4121C11.9684 13.3558 12 13.2795 12 13.1999V5.99995C12 5.92039 11.9684 5.84408 11.9121 5.78782C11.8559 5.73156 11.7796 5.69995 11.7 5.69995ZM11.4 12.8999H6.6V11.0999H11.4V12.8999ZM11.4 10.4999H6.6V8.69995H11.4V10.4999ZM11.4 8.09995H6.6V6.29995H11.4V8.09995Z" fill="#FFD34B"/>
<path d="M17.1 0H12.9C12.6615 0.000712226 12.433 0.0957619 12.2644 0.26439C12.0958 0.433019 12.0007 0.661523 12 0.899999V3.29999C12.0007 3.53847 12.0958 3.76697 12.2644 3.9356C12.433 4.10423 12.6615 4.19928 12.9 4.19999H14.1V4.79999H13.5V5.39999H16.5V4.79999H15.9V4.19999H17.1C17.3385 4.19928 17.567 4.10423 17.7356 3.9356C17.9042 3.76697 17.9993 3.53847 18 3.29999V0.899999C17.9993 0.661523 17.9042 0.433019 17.7356 0.26439C17.567 0.0957619 17.3385 0.000712226 17.1 0V0ZM15.3 4.79999H14.7V4.19999H15.3V4.79999ZM17.4 3.29999C17.4 3.37956 17.3684 3.45587 17.3121 3.51213C17.2559 3.56839 17.1796 3.59999 17.1 3.59999H12.9C12.8204 3.59999 12.7441 3.56839 12.6879 3.51213C12.6316 3.45587 12.6 3.37956 12.6 3.29999V3H17.4V3.29999ZM17.4 2.4H12.6V0.899999C12.6 0.820434 12.6316 0.744128 12.6879 0.687867C12.7441 0.631606 12.8204 0.599999 12.9 0.599999H17.1C17.1796 0.599999 17.2559 0.631606 17.3121 0.687867C17.3684 0.744128 17.4 0.820434 17.4 0.899999V2.4Z" fill="#FFD34B"/>
<path d="M17.7 16.1999V14.0999C17.6993 13.8615 17.6042 13.633 17.4356 13.4643C17.267 13.2957 17.0385 13.2007 16.8 13.2H13.2C12.9615 13.2007 12.733 13.2957 12.5644 13.4643C12.3958 13.633 12.3007 13.8615 12.3 14.0999V16.1999C12.2204 16.1999 12.1441 16.2316 12.0879 16.2878C12.0316 16.3441 12 16.4204 12 16.4999V17.0999C12.0007 17.3384 12.0958 17.5669 12.2644 17.7356C12.433 17.9042 12.6615 17.9992 12.9 17.9999H17.1C17.3385 17.9992 17.567 17.9042 17.7356 17.7356C17.9042 17.5669 17.9993 17.3384 18 17.0999V16.4999C18 16.4204 17.9684 16.3441 17.9121 16.2878C17.8559 16.2316 17.7796 16.1999 17.7 16.1999ZM12.9 14.0999C12.9 14.0204 12.9316 13.9441 12.9879 13.8878C13.0441 13.8316 13.1204 13.8 13.2 13.8H16.8C16.8796 13.8 16.9559 13.8316 17.0121 13.8878C17.0684 13.9441 17.1 14.0204 17.1 14.0999V16.1999H12.9V14.0999ZM17.4 17.0999C17.4 17.1795 17.3684 17.2558 17.3121 17.3121C17.2559 17.3683 17.1796 17.3999 17.1 17.3999H12.9C12.8204 17.3999 12.7441 17.3683 12.6879 17.3121C12.6316 17.2558 12.6 17.1795 12.6 17.0999V16.7999H17.4V17.0999Z" fill="#FFD34B"/>
<path d="M4.49999 13.8001H4.19999V13.5001C4.19928 13.2616 4.10423 13.0331 3.9356 12.8645C3.76697 12.6959 3.53847 12.6008 3.29999 12.6001H0.899999C0.661523 12.6008 0.433019 12.6959 0.26439 12.8645C0.0957619 13.0331 0.000712226 13.2616 0 13.5001V17.1001C0.000712226 17.3386 0.0957619 17.5671 0.26439 17.7357C0.433019 17.9043 0.661523 17.9994 0.899999 18.0001H4.49999C4.73847 17.9994 4.96697 17.9043 5.1356 17.7357C5.30423 17.5671 5.39928 17.3386 5.39999 17.1001V14.7001C5.39928 14.4616 5.30423 14.2331 5.1356 14.0645C4.96697 13.8959 4.73847 13.8008 4.49999 13.8001V13.8001ZM2.454 17.4001H0.899999C0.820434 17.4001 0.744128 17.3685 0.687867 17.3122C0.631606 17.256 0.599999 17.1797 0.599999 17.1001V13.5001C0.599999 13.4205 0.631606 13.3442 0.687867 13.288C0.744128 13.2317 0.820434 13.2001 0.899999 13.2001H3.29999C3.37956 13.2001 3.45587 13.2317 3.51213 13.288C3.56839 13.3442 3.59999 13.4205 3.59999 13.5001V13.8001H3.29999C3.06152 13.8008 2.83301 13.8959 2.66439 14.0645C2.49576 14.2331 2.40071 14.4616 2.4 14.7001V17.1001C2.40081 17.2024 2.41907 17.3039 2.454 17.4001ZM4.79999 17.1001C4.79999 17.1797 4.76839 17.256 4.71212 17.3122C4.65586 17.3685 4.57956 17.4001 4.49999 17.4001H3.29999C3.22043 17.4001 3.14412 17.3685 3.08786 17.3122C3.0316 17.256 3 17.1797 3 17.1001V14.7001C3 14.6205 3.0316 14.5442 3.08786 14.488C3.14412 14.4317 3.22043 14.4001 3.29999 14.4001H4.49999C4.57956 14.4001 4.65586 14.4317 4.71212 14.488C4.76839 14.5442 4.79999 14.6205 4.79999 14.7001V17.1001Z" fill="#FFD34B"/>
<path d="M6.57545 1.824C6.53747 1.61829 6.45676 1.42283 6.33852 1.25025C6.22029 1.07768 6.06716 0.93183 5.88904 0.82213C5.71092 0.71243 5.51176 0.641319 5.30444 0.613393C5.09712 0.585467 4.88625 0.601347 4.68545 0.660006C4.51856 0.453266 4.30739 0.286634 4.0675 0.172403C3.82762 0.0581721 3.56515 -0.000741967 3.29945 7.05357e-06C2.92535 0.00111988 2.56081 0.118305 2.25614 0.335393C1.95146 0.552481 1.72167 0.858772 1.59846 1.212C1.14266 1.26488 0.72426 1.48982 0.428771 1.84087C0.133282 2.19191 -0.0169854 2.64256 0.00867937 3.10069C0.0343442 3.55883 0.234004 3.98987 0.566852 4.30571C0.8997 4.62156 1.34061 4.79837 1.79946 4.8H6.29945C6.67482 4.80222 7.03738 4.66363 7.31555 4.41157C7.59372 4.15951 7.76727 3.81232 7.80193 3.43855C7.8366 3.06477 7.72986 2.69158 7.50279 2.39267C7.27572 2.09376 6.94483 1.89085 6.57545 1.824V1.824ZM6.29945 4.2H1.79946C1.48475 4.19746 1.1836 4.07157 0.960709 3.84938C0.73782 3.62719 0.61098 3.32644 0.607444 3.01174C0.603908 2.69705 0.723958 2.39352 0.941799 2.16638C1.15964 1.93924 1.45789 1.80662 1.77246 1.797C1.78821 1.80066 1.80429 1.80267 1.82046 1.803C1.89102 1.8046 1.95992 1.78149 2.01525 1.73766C2.07058 1.69384 2.10885 1.63206 2.12346 1.563C2.17066 1.32622 2.28837 1.10925 2.46112 0.940581C2.63388 0.771909 2.8536 0.659422 3.09144 0.617889C3.32928 0.576356 3.57413 0.607719 3.79382 0.707859C4.01352 0.808 4.19779 0.972237 4.32245 1.179C4.3603 1.24373 4.42142 1.29157 4.49335 1.31275C4.56527 1.33394 4.64256 1.32687 4.70945 1.293C4.84614 1.22519 4.99793 1.19353 5.15033 1.20104C5.30274 1.20854 5.45068 1.25498 5.58004 1.3359C5.7094 1.41683 5.81587 1.52955 5.88929 1.66331C5.96271 1.79708 6.00064 1.94742 5.99945 2.1C5.99945 2.17957 6.03106 2.25587 6.08732 2.31213C6.14358 2.3684 6.21989 2.4 6.29945 2.4C6.53814 2.4 6.76706 2.49482 6.93585 2.66361C7.10463 2.83239 7.19945 3.06131 7.19945 3.3C7.19945 3.5387 7.10463 3.76761 6.93585 3.9364C6.76706 4.10518 6.53814 4.2 6.29945 4.2Z" fill="#FFD34B"/>
<path d="M7.19922 6.8999H7.79922V7.4999H7.19922V6.8999Z" fill="#FFD34B"/>
<path d="M8.69922 6.8999H9.29922V7.4999H8.69922V6.8999Z" fill="#FFD34B"/>
<path d="M10.1992 6.8999H10.7992V7.4999H10.1992V6.8999Z" fill="#FFD34B"/>
<path d="M7.19922 9.2998H7.79922V9.8998H7.19922V9.2998Z" fill="#FFD34B"/>
<path d="M8.69922 9.2998H9.29922V9.8998H8.69922V9.2998Z" fill="#FFD34B"/>
<path d="M10.1992 9.2998H10.7992V9.8998H10.1992V9.2998Z" fill="#FFD34B"/>
<path d="M7.19922 11.7H7.79922V12.3H7.19922V11.7Z" fill="#FFD34B"/>
<path d="M8.69922 11.7H9.29922V12.3H8.69922V11.7Z" fill="#FFD34B"/>
<path d="M10.1992 11.7H10.7992V12.3H10.1992V11.7Z" fill="#FFD34B"/>
<path d="M15.2996 8.1V6H14.6996V7.8H12.5996V8.4H14.9996C15.0792 8.4 15.1555 8.36839 15.2117 8.31213C15.268 8.25587 15.2996 8.17956 15.2996 8.1Z" fill="#FFD34B"/>
<path d="M12.5996 10.2001H14.6996V12.6001H15.2996V9.9001C15.2996 9.82053 15.268 9.74423 15.2117 9.68797C15.1555 9.6317 15.0792 9.6001 14.9996 9.6001H12.5996V10.2001Z" fill="#FFD34B"/>
<path d="M3.29922 5.3999H2.69922V8.0999C2.69922 8.17946 2.73083 8.25577 2.78709 8.31203C2.84335 8.36829 2.91965 8.3999 2.99922 8.3999H5.39921V7.7999H3.29922V5.3999Z" fill="#FFD34B"/>
<path d="M2.69922 9.9001V12.0001H3.29922V10.2001H5.39921V9.6001H2.99922C2.91965 9.6001 2.84335 9.6317 2.78709 9.68797C2.73083 9.74423 2.69922 9.82053 2.69922 9.9001Z" fill="#FFD34B"/>
</svg>
