<svg width="20" height="20" viewBox="0 0 20 20" fill="none" xmlns="http://www.w3.org/2000/svg">
<path d="M16.3906 1.875V10H17.0469V1.875C17.0465 1.54359 16.9081 1.22587 16.662 0.991528C16.416 0.757188 16.0824 0.625372 15.7344 0.625H4.57812V1.25H15.7344C15.9084 1.2502 16.0752 1.31611 16.1982 1.43328C16.3212 1.55044 16.3904 1.7093 16.3906 1.875V1.875Z" fill="#FFD34B"/>
<path d="M2.60938 1.875C2.60958 1.7093 2.67879 1.55044 2.80181 1.43328C2.92484 1.31611 3.09164 1.2502 3.26562 1.25H3.92188V0.625H3.26562C2.91765 0.625372 2.58404 0.757188 2.33798 0.991528C2.09192 1.22587 1.95352 1.54359 1.95312 1.875V12.8125H2.60938V1.875Z" fill="#FFD34B"/>
<path d="M3.26562 1.875H3.92188V2.5H3.26562V1.875Z" fill="#FFD34B"/>
<path d="M4.57812 1.875H5.23438V2.5H4.57812V1.875Z" fill="#FFD34B"/>
<path d="M5.89062 1.875H6.54688V2.5H5.89062V1.875Z" fill="#FFD34B"/>
<path d="M15.7344 3.12499H13.0815C13.0041 2.68811 12.7666 2.29148 12.4113 2.00546C12.056 1.71943 11.6058 1.5625 11.1406 1.5625C10.6754 1.5625 10.2252 1.71943 9.86992 2.00546C9.51463 2.29148 9.27719 2.68811 9.19972 3.12499H3.26562V3.74999H9.19476C9.24709 4.11172 9.39113 4.45587 9.61443 4.75269L10.8736 6.43159C10.904 6.47207 10.944 6.50507 10.9905 6.52783C11.0369 6.55059 11.0884 6.56246 11.1406 6.56246C11.1929 6.56246 11.2443 6.55059 11.2908 6.52783C11.3372 6.50507 11.3773 6.47207 11.4076 6.43159L12.6668 4.75269C12.8901 4.45586 13.0341 4.11172 13.0865 3.74999H15.7344V3.12499ZM12.1328 4.38941L11.1406 5.71234L10.1485 4.38941C9.93952 4.11194 9.82746 3.77894 9.82812 3.43749C9.82812 3.10597 9.96641 2.78803 10.2125 2.55361C10.4587 2.31919 10.7925 2.18749 11.1406 2.18749C11.4887 2.18749 11.8226 2.31919 12.0687 2.55361C12.3148 2.78803 12.4531 3.10597 12.4531 3.43749C12.4538 3.77894 12.3417 4.11194 12.1328 4.38941Z" fill="#FFD34B"/>
<path d="M8.78745 8.4375H10.2128C10.2807 8.62019 10.4064 8.77835 10.5726 8.8902C10.7388 9.00206 10.9373 9.06212 11.1408 9.06212C11.3443 9.06212 11.5427 9.00206 11.7089 8.8902C11.8751 8.77835 12.0008 8.62019 12.0687 8.4375H13.8222C13.8996 8.646 14.0519 8.82174 14.2522 8.93364C14.4525 9.04553 14.6879 9.0864 14.9167 9.049C15.1456 9.0116 15.3532 8.89835 15.5029 8.72927C15.6526 8.56019 15.7347 8.34615 15.7347 8.125C15.7347 7.90385 15.6526 7.68982 15.5029 7.52073C15.3532 7.35165 15.1456 7.2384 14.9167 7.201C14.6879 7.16361 14.4525 7.20447 14.2522 7.31637C14.0519 7.42827 13.8996 7.604 13.8222 7.8125H12.0687C12.0008 7.62981 11.8751 7.47166 11.7089 7.3598C11.5427 7.24794 11.3443 7.18788 11.1408 7.18788C10.9373 7.18788 10.7388 7.24794 10.5726 7.3598C10.4064 7.47166 10.2807 7.62981 10.2128 7.8125H8.78745C8.71954 7.62981 8.59385 7.47166 8.42767 7.3598C8.2615 7.24794 8.06301 7.18788 7.85951 7.18788C7.65602 7.18788 7.45753 7.24794 7.29136 7.3598C7.12518 7.47166 6.99949 7.62981 6.93158 7.8125H5.17808C5.10067 7.604 4.94837 7.42827 4.74808 7.31637C4.54778 7.20447 4.31241 7.16361 4.08354 7.201C3.85467 7.2384 3.64706 7.35165 3.49739 7.52073C3.34772 7.68982 3.26562 7.90385 3.26562 8.125C3.26562 8.34615 3.34772 8.56019 3.49739 8.72927C3.64706 8.89835 3.85467 9.0116 4.08354 9.049C4.31241 9.0864 4.54778 9.04553 4.74808 8.93364C4.94837 8.82174 5.10067 8.646 5.17808 8.4375H6.93158C6.99949 8.62019 7.12518 8.77835 7.29136 8.8902C7.45753 9.00206 7.65602 9.06212 7.85951 9.06212C8.06301 9.06212 8.2615 9.00206 8.42767 8.8902C8.59385 8.77835 8.71954 8.62019 8.78745 8.4375V8.4375ZM14.7501 7.8125C14.815 7.8125 14.8785 7.83083 14.9324 7.86517C14.9864 7.8995 15.0285 7.94831 15.0533 8.00541C15.0781 8.06251 15.0846 8.12535 15.072 8.18597C15.0593 8.24659 15.028 8.30227 14.9822 8.34597C14.9363 8.38968 14.8778 8.41944 14.8142 8.4315C14.7505 8.44355 14.6845 8.43737 14.6246 8.41371C14.5646 8.39006 14.5134 8.35001 14.4773 8.29862C14.4413 8.24723 14.422 8.18681 14.422 8.125C14.4221 8.04215 14.4567 7.96272 14.5182 7.90413C14.5797 7.84555 14.6631 7.81259 14.7501 7.8125V7.8125ZM11.1408 7.8125C11.2057 7.8125 11.2691 7.83083 11.3231 7.86517C11.377 7.8995 11.4191 7.94831 11.4439 8.00541C11.4687 8.06251 11.4752 8.12535 11.4626 8.18597C11.4499 8.24659 11.4187 8.30227 11.3728 8.34597C11.3269 8.38968 11.2684 8.41944 11.2048 8.4315C11.1411 8.44355 11.0752 8.43737 11.0152 8.41371C10.9552 8.39006 10.904 8.35001 10.8679 8.29862C10.8319 8.24723 10.8126 8.18681 10.8126 8.125C10.8127 8.04215 10.8473 7.96272 10.9089 7.90413C10.9704 7.84555 11.0538 7.81259 11.1408 7.8125ZM4.25014 8.4375C4.18524 8.4375 4.1218 8.41917 4.06784 8.38484C4.01388 8.3505 3.97183 8.30169 3.94699 8.24459C3.92216 8.18749 3.91566 8.12465 3.92832 8.06403C3.94098 8.00342 3.97223 7.94773 4.01812 7.90403C4.06401 7.86033 4.12248 7.83056 4.18613 7.81851C4.24978 7.80645 4.31575 7.81264 4.37571 7.83629C4.43566 7.85994 4.48691 7.89999 4.52297 7.95139C4.55902 8.00278 4.57826 8.06319 4.57826 8.125C4.57817 8.20785 4.54357 8.28728 4.48205 8.34587C4.42054 8.40445 4.33713 8.43741 4.25014 8.4375V8.4375ZM7.85951 8.4375C7.79462 8.4375 7.73118 8.41917 7.67722 8.38484C7.62326 8.3505 7.5812 8.30169 7.55637 8.24459C7.53153 8.18749 7.52503 8.12465 7.53769 8.06403C7.55035 8.00342 7.58161 7.94773 7.62749 7.90403C7.67338 7.86033 7.73185 7.83056 7.7955 7.81851C7.85915 7.80645 7.92513 7.81264 7.98508 7.83629C8.04504 7.85994 8.09629 7.89999 8.13234 7.95139C8.1684 8.00278 8.18764 8.06319 8.18764 8.125C8.18754 8.20785 8.15294 8.28728 8.09143 8.34587C8.02991 8.40445 7.94651 8.43741 7.85951 8.4375Z" fill="#FFD34B"/>
<path d="M3.59375 9.6875H4.90625V10.3125H3.59375V9.6875Z" fill="#FFD34B"/>
<path d="M7.20312 9.6875H8.51562V10.3125H7.20312V9.6875Z" fill="#FFD34B"/>
<path d="M3.59375 11.25H8.1875V11.875H3.59375V11.25Z" fill="#FFD34B"/>
<path d="M3.26562 4.375H6.21875V5H3.26562V4.375Z" fill="#FFD34B"/>
<path d="M3.26562 5.625H5.5625V6.25H3.26562V5.625Z" fill="#FFD34B"/>
<path d="M13.7656 4.375H15.7344V5H13.7656V4.375Z" fill="#FFD34B"/>
<path d="M13.7656 5.625H15.7344V6.25H13.7656V5.625Z" fill="#FFD34B"/>
<path d="M11.1406 4.0625C11.5031 4.0625 11.7969 3.78268 11.7969 3.4375C11.7969 3.09232 11.5031 2.8125 11.1406 2.8125C10.7782 2.8125 10.4844 3.09232 10.4844 3.4375C10.4844 3.78268 10.7782 4.0625 11.1406 4.0625Z" fill="#FFD34B"/>
<path d="M19.0438 17.7098L16.6321 15.413C16.9267 15.0034 17.1396 14.5456 17.2602 14.0625H18.0312V15C18.0312 15.0879 18.0116 15.1748 17.9739 15.2551C17.9362 15.3354 17.8812 15.4071 17.8124 15.4658L18.2501 15.9315C18.3876 15.8142 18.4976 15.6706 18.573 15.5101C18.6483 15.3496 18.6874 15.1758 18.6875 15V4.6875C18.6872 4.42905 18.6029 4.17702 18.4463 3.96599C18.2896 3.75496 18.0682 3.59525 17.8125 3.50879L17.5937 4.09801C17.7216 4.14126 17.8323 4.22114 17.9106 4.32668C17.989 4.43222 18.0311 4.55826 18.0312 4.6875V13.4375H17.3627C17.3709 13.3343 17.3751 13.2302 17.3752 13.125C17.3752 12.3408 17.1369 11.5733 16.689 10.9152C16.2411 10.2571 15.6027 9.73656 14.851 9.4164C14.0993 9.09623 13.2663 8.99013 12.4527 9.1109C11.6391 9.23167 10.8795 9.57415 10.2658 10.097L10.7034 10.5627C11.3911 9.97739 12.2882 9.66527 13.2101 9.69054C14.132 9.71581 15.0087 10.0765 15.6599 10.6985C16.3112 11.3205 16.6874 12.1565 16.7113 13.0346C16.7351 13.9127 16.4048 14.7662 15.7883 15.4194C15.1717 16.0727 14.3158 16.4761 13.3965 16.5468C12.4772 16.6175 11.5644 16.35 10.8458 15.7994C10.1272 15.2487 9.65743 14.4568 9.53311 13.5864C9.4088 12.7161 9.63937 11.8334 10.1774 11.12L9.64466 10.755C9.12201 11.4448 8.84168 12.2743 8.84375 13.125C8.84375 13.2301 8.84792 13.3343 8.85626 13.4375H0.96875V4.6875C0.968897 4.55826 1.01103 4.43222 1.08936 4.32668C1.16769 4.22114 1.27838 4.14126 1.40626 4.09801L1.18749 3.50879C0.931753 3.59525 0.710374 3.75496 0.553718 3.96599C0.397062 4.17702 0.312803 4.42905 0.3125 4.6875V15C0.312891 15.3314 0.451297 15.6491 0.697354 15.8835C0.943411 16.1178 1.27702 16.2496 1.625 16.25H7.41833L6.63083 18.75H5.89062V19.375H13.1094V18.75H12.3691L12.0455 17.7227L11.4169 17.9023L11.684 18.75H7.316L8.1035 16.25H10.3868C11.0358 16.7642 11.8307 17.083 12.6705 17.1659C13.5102 17.2488 14.3569 17.0921 15.1029 16.7156L17.5953 19.0893C17.7874 19.2723 18.0479 19.375 18.3195 19.375C18.5912 19.375 18.8517 19.2723 19.0438 19.0893C19.2358 18.9064 19.3437 18.6583 19.3437 18.3996C19.3437 18.1409 19.2358 17.8928 19.0438 17.7098H19.0438ZM0.96875 15V14.0625H8.95859C9.10064 14.6316 9.37041 15.1647 9.74937 15.625H1.625C1.45101 15.6248 1.28422 15.5589 1.16119 15.4417C1.03816 15.3246 0.968956 15.1657 0.96875 15V15ZM16.2186 15.9031L16.5828 16.25L16.0625 16.7455L15.6702 16.3719C15.8667 16.2309 16.0502 16.074 16.2186 15.9031ZM18.3195 18.75C18.2712 18.7501 18.2233 18.7411 18.1787 18.7235C18.134 18.7059 18.0935 18.68 18.0594 18.6473L16.5265 17.1875L17.0469 16.6919L18.5797 18.1518C18.6312 18.2008 18.6662 18.2633 18.6804 18.3312C18.6946 18.3992 18.6873 18.4697 18.6595 18.5337C18.6316 18.5977 18.5845 18.6525 18.524 18.691C18.4635 18.7295 18.3923 18.75 18.3195 18.75V18.75Z" fill="#FFD34B"/>
<path d="M13.1094 15.9375C13.6934 15.9375 14.2644 15.7726 14.75 15.4635C15.2357 15.1545 15.6142 14.7152 15.8377 14.2013C16.0612 13.6874 16.1197 13.1219 16.0058 12.5763C15.8918 12.0307 15.6106 11.5296 15.1975 11.1363C14.7845 10.7429 14.2584 10.4751 13.6855 10.3665C13.1127 10.258 12.5189 10.3137 11.9793 10.5266C11.4397 10.7395 10.9784 11.0999 10.6539 11.5625C10.3294 12.025 10.1563 12.5687 10.1562 13.125C10.1571 13.8707 10.4685 14.5855 11.0222 15.1128C11.5758 15.6401 12.3264 15.9367 13.1094 15.9375V15.9375ZM13.1094 10.9375C13.5637 10.9375 14.0077 11.0658 14.3855 11.3062C14.7632 11.5465 15.0576 11.8882 15.2314 12.2879C15.4053 12.6876 15.4507 13.1274 15.3621 13.5518C15.2735 13.9761 15.0547 14.3659 14.7335 14.6718C14.4123 14.9777 14.003 15.1861 13.5575 15.2705C13.1119 15.3549 12.6501 15.3116 12.2304 15.146C11.8107 14.9804 11.452 14.7 11.1996 14.3403C10.9472 13.9806 10.8125 13.5576 10.8125 13.125C10.8132 12.545 11.0554 11.989 11.486 11.5789C11.9166 11.1688 12.5004 10.9382 13.1094 10.9375V10.9375Z" fill="#FFD34B"/>
<path d="M13.1094 12.1875V11.5625C12.6744 11.563 12.2574 11.7277 11.9498 12.0207C11.6422 12.3136 11.4692 12.7107 11.4688 13.125H12.125C12.1253 12.8764 12.2291 12.6382 12.4137 12.4624C12.5982 12.2867 12.8484 12.1878 13.1094 12.1875V12.1875Z" fill="#FFD34B"/>
</svg>
