<svg width="20" height="20" viewBox="0 0 20 20" fill="none" xmlns="http://www.w3.org/2000/svg">
<path d="M3.07617 8.29283C3.23801 8.29283 3.36914 8.16166 3.36914 7.99986V6.96162L4.17258 8.1251C4.25691 8.24693 4.39828 8.2985 4.53262 8.25646C4.66941 8.21373 4.75781 8.08682 4.75781 7.93022L4.7393 6.01525C4.73773 5.85439 4.60688 5.7251 4.44641 5.7251C4.44547 5.7251 4.44445 5.7251 4.44352 5.7251C4.28168 5.72666 4.1518 5.85908 4.15336 6.02088L4.16363 7.08092L3.31727 5.85537C3.24441 5.74986 3.11152 5.70404 2.98898 5.74217C2.8666 5.78033 2.7832 5.89365 2.7832 6.02186V7.9999C2.7832 8.16166 2.91438 8.29283 3.07617 8.29283Z" fill="#FFD34B"/>
<path d="M10.166 8.29274C10.3278 8.29274 10.459 8.16157 10.459 7.99978V6.01807C10.459 5.85627 10.3278 5.7251 10.166 5.7251C10.0042 5.7251 9.87305 5.85627 9.87305 6.01807V7.99978C9.87305 8.16157 10.0042 8.29274 10.166 8.29274Z" fill="#FFD34B"/>
<path d="M2.00195 8.29274C2.16379 8.29274 2.29492 8.16157 2.29492 7.99978V6.01807C2.29492 5.85627 2.16379 5.7251 2.00195 5.7251C1.84012 5.7251 1.70898 5.85627 1.70898 6.01807V7.99978C1.70898 8.16157 1.84012 8.29274 2.00195 8.29274Z" fill="#FFD34B"/>
<path d="M13.3105 6.03516V7.99883C13.3105 8.16063 13.4417 8.2918 13.6035 8.2918H14.4309C14.5928 8.2918 14.7239 8.16063 14.7239 7.99883C14.7239 7.83703 14.5928 7.70586 14.4309 7.70586H13.8965V7.30996H14.3699C14.5317 7.30996 14.6629 7.17879 14.6629 7.01699C14.6629 6.8552 14.5317 6.72402 14.3699 6.72402H13.8965V6.32812H14.4309C14.5928 6.32812 14.7239 6.19695 14.7239 6.03516C14.7239 5.87336 14.5928 5.74219 14.4309 5.74219H13.6035C13.4417 5.74219 13.3105 5.87336 13.3105 6.03516V6.03516Z" fill="#FFD34B"/>
<path d="M12.0163 8.29274C12.3005 8.29274 12.5559 8.19907 12.7551 8.02173C12.7941 7.987 12.831 7.94884 12.865 7.90833C12.969 7.78439 12.9528 7.59958 12.8288 7.4956C12.7048 7.39161 12.5201 7.40779 12.4161 7.53177C12.4002 7.55068 12.3831 7.56841 12.3653 7.58423C12.2739 7.6656 12.1565 7.70681 12.0163 7.70681C11.6314 7.70681 11.3184 7.39372 11.3184 7.00892C11.3184 6.62412 11.6315 6.31103 12.0163 6.31103C12.1562 6.31103 12.2911 6.3522 12.4063 6.43006C12.5404 6.52064 12.7225 6.48537 12.813 6.35131C12.9036 6.21721 12.8684 6.0351 12.7343 5.94451C12.5218 5.80096 12.2735 5.7251 12.0163 5.7251C11.3084 5.7251 10.7324 6.30103 10.7324 7.00892C10.7324 7.71681 11.3084 8.29274 12.0163 8.29274V8.29274Z" fill="#FFD34B"/>
<path d="M5.67495 8.06817C5.72276 8.20282 5.85041 8.29286 5.99315 8.29286H5.99545C6.13909 8.29188 6.26663 8.19989 6.31358 8.06192L6.96061 6.11413C7.01166 5.96058 6.9285 5.79476 6.77495 5.74374C6.62155 5.69276 6.45557 5.77585 6.40459 5.9294L5.98807 7.18328L5.55026 5.92206C5.49725 5.76921 5.33022 5.68835 5.17745 5.74136C5.02459 5.7944 4.9437 5.96136 4.99674 6.11421L5.67495 8.06817Z" fill="#FFD34B"/>
<path d="M8.23695 8.29274C8.94488 8.29274 9.52082 7.71681 9.52082 7.00892C9.52082 6.30103 8.94488 5.7251 8.23695 5.7251C7.52906 5.7251 6.95312 6.30103 6.95312 7.00892C6.95312 7.71681 7.52906 8.29274 8.23695 8.29274V8.29274ZM8.23695 6.31103C8.6218 6.31103 8.93488 6.62412 8.93488 7.00892C8.93488 7.39372 8.62176 7.70681 8.23695 7.70681C7.85215 7.70681 7.53906 7.39372 7.53906 7.00892C7.53906 6.62412 7.85215 6.31103 8.23695 6.31103Z" fill="#FFD34B"/>
<path d="M15.0063 9.05884H4.50195C4.34012 9.05884 4.20898 9.19001 4.20898 9.35181C4.20898 9.5136 4.34012 9.64478 4.50195 9.64478H15.0063C15.1681 9.64478 15.2992 9.5136 15.2992 9.35181C15.2992 9.19001 15.1681 9.05884 15.0063 9.05884Z" fill="#FFD34B"/>
<path d="M3.62578 9.35181C3.62578 9.19001 3.49465 9.05884 3.33281 9.05884H1.43555C1.27371 9.05884 1.14258 9.19001 1.14258 9.35181C1.14258 9.5136 1.27371 9.64478 1.43555 9.64478H3.33281C3.49461 9.64478 3.62578 9.5136 3.62578 9.35181Z" fill="#FFD34B"/>
<path d="M9.775 10.6799H3.56445C3.40262 10.6799 3.27148 10.8111 3.27148 10.9729C3.27148 11.1347 3.40262 11.2659 3.56445 11.2659H9.775C9.93684 11.2659 10.068 11.1347 10.068 10.9729C10.068 10.8111 9.93684 10.6799 9.775 10.6799V10.6799Z" fill="#FFD34B"/>
<path d="M12.8771 10.6799H12.0313C11.8694 10.6799 11.7383 10.8111 11.7383 10.9729C11.7383 11.1347 11.8694 11.2659 12.0313 11.2659H12.8771C13.039 11.2659 13.1701 11.1347 13.1701 10.9729C13.1701 10.8111 13.039 10.6799 12.8771 10.6799V10.6799Z" fill="#FFD34B"/>
<path d="M9.775 12.1948H3.56445C3.40262 12.1948 3.27148 12.326 3.27148 12.4878C3.27148 12.6496 3.40262 12.7808 3.56445 12.7808H9.775C9.93684 12.7808 10.068 12.6496 10.068 12.4878C10.068 12.326 9.93684 12.1948 9.775 12.1948V12.1948Z" fill="#FFD34B"/>
<path d="M12.8771 12.1948H12.0313C11.8694 12.1948 11.7383 12.326 11.7383 12.4878C11.7383 12.6496 11.8694 12.7808 12.0313 12.7808H12.8771C13.039 12.7808 13.1701 12.6496 13.1701 12.4878C13.1701 12.326 13.039 12.1948 12.8771 12.1948V12.1948Z" fill="#FFD34B"/>
<path d="M9.775 13.7085H3.56445C3.40262 13.7085 3.27148 13.8397 3.27148 14.0015C3.27148 14.1633 3.40262 14.2944 3.56445 14.2944H9.775C9.93684 14.2944 10.068 14.1633 10.068 14.0015C10.068 13.8397 9.93684 13.7085 9.775 13.7085V13.7085Z" fill="#FFD34B"/>
<path d="M12.8771 13.7085H12.0313C11.8694 13.7085 11.7383 13.8397 11.7383 14.0015C11.7383 14.1633 11.8694 14.2944 12.0313 14.2944H12.8771C13.039 14.2944 13.1701 14.1633 13.1701 14.0015C13.1701 13.8397 13.039 13.7085 12.8771 13.7085V13.7085Z" fill="#FFD34B"/>
<path d="M9.775 15.2234H3.56445C3.40262 15.2234 3.27148 15.3546 3.27148 15.5164C3.27148 15.6782 3.40262 15.8093 3.56445 15.8093H9.775C9.93684 15.8093 10.068 15.6782 10.068 15.5164C10.068 15.3546 9.93684 15.2234 9.775 15.2234V15.2234Z" fill="#FFD34B"/>
<path d="M19.7083 13.623C19.6041 13.2487 19.3604 12.9374 19.0221 12.7464C18.684 12.5555 18.2917 12.5076 17.9175 12.6117C17.5432 12.7159 17.2319 12.9595 17.041 13.2977L16.2063 14.7757V1.85508C16.2063 0.832188 15.3739 0 14.3509 0H5.66258C5.07133 0 4.4925 0.239727 4.07453 0.657695L0.892109 3.84012C0.47418 4.25809 0.234453 4.83688 0.234453 5.42813V5.75871C0.234453 5.75973 0.234375 5.7607 0.234375 5.76172C0.234375 5.76223 0.234453 5.76273 0.234453 5.76324V16.3762C0.234453 17.3991 1.06684 18.2313 2.08992 18.2313H13.6632L14.5979 19.4371C14.8716 19.7896 15.3011 20 15.7469 20C15.7802 20 15.8145 19.9987 15.8529 19.9961C16.3395 19.9608 16.7734 19.686 17.0137 19.2609L18.0937 17.3484C18.1733 17.2075 18.1236 17.0287 17.9827 16.9492C17.8417 16.8696 17.663 16.9193 17.5836 17.0602L16.5036 18.9727C16.3601 19.2265 16.1009 19.3906 15.8115 19.4116C15.7877 19.4133 15.7666 19.4141 15.7469 19.4141C15.4807 19.4141 15.2242 19.2883 15.0609 19.078L13.119 16.5728C12.9769 16.3896 12.9147 16.162 12.9438 15.9319C12.9729 15.7017 13.0899 15.4967 13.2733 15.3546C13.6517 15.0614 14.1982 15.1306 14.4916 15.5088L15.3634 16.6334C15.4236 16.711 15.5184 16.7534 15.6163 16.7461C15.7141 16.739 15.8019 16.6834 15.8501 16.598L17.5513 13.5858C17.6653 13.3839 17.8511 13.2384 18.0746 13.1763C18.298 13.1141 18.5323 13.1427 18.7342 13.2568C18.9362 13.3707 19.0817 13.5566 19.1439 13.7801C19.2061 14.0036 19.1774 14.2379 19.0633 14.44L18.1563 16.0458C18.0767 16.1867 18.1264 16.3654 18.2673 16.445C18.4082 16.5246 18.5869 16.4749 18.6665 16.334L19.5735 14.7282C19.7645 14.3898 19.8124 13.9973 19.7083 13.623V13.623ZM4.48883 1.07199C4.54035 1.02047 4.59543 0.972969 4.65309 0.928984C4.59344 1.0866 4.56051 1.25727 4.56051 1.43555V3.05703C4.56051 3.75688 3.99113 4.32621 3.29129 4.32621H1.66984C1.4916 4.32621 1.32094 4.35914 1.16332 4.41879C1.2073 4.36109 1.25484 4.30598 1.30641 4.25441L4.48883 1.07199ZM15.5565 15.9262L14.9545 15.1497C14.4632 14.5163 13.548 14.4003 12.9143 14.8914C12.7913 14.9868 12.6865 15.0992 12.6015 15.2242H12.0321C11.8702 15.2242 11.7391 15.3554 11.7391 15.5172C11.7391 15.679 11.8702 15.8102 12.0321 15.8102H12.3698C12.3672 15.8262 12.3645 15.8421 12.3625 15.8583C12.3137 16.2437 12.4179 16.625 12.6559 16.9318L13.209 17.6453H2.08988C1.38984 17.6453 0.820352 17.076 0.820352 16.3762V5.75871C0.821992 5.29164 1.20242 4.91215 1.66984 4.91215H3.29129C4.31426 4.91215 5.14645 4.07992 5.14645 3.05703V1.43555C5.14645 0.967109 5.52754 0.586016 5.99598 0.586016C5.99648 0.586016 5.99699 0.585938 5.9975 0.585938H14.3508C15.0509 0.585938 15.6204 1.15527 15.6204 1.85508V15.8131L15.5565 15.9262Z" fill="#FFD34B"/>
<path d="M12.2518 4.25751C12.4231 4.36954 12.554 4.42216 12.7021 4.44548V4.49145C12.7021 4.65325 12.8333 4.78442 12.9951 4.78442C13.1569 4.78442 13.2881 4.65325 13.2881 4.49145V4.41302C13.6226 4.29872 13.8369 4.00036 13.8865 3.7052C13.9553 3.29575 13.7336 2.92595 13.3347 2.78493C13.1342 2.71403 12.9129 2.62888 12.7929 2.53474C12.7754 2.52099 12.7635 2.47415 12.7738 2.4195C12.7792 2.39095 12.804 2.29563 12.8976 2.26739C13.1058 2.20466 13.2393 2.30876 13.2538 2.32083C13.3781 2.42431 13.5628 2.40743 13.6663 2.28306C13.7698 2.15868 13.7529 1.97395 13.6286 1.87048C13.5432 1.79942 13.4262 1.73513 13.288 1.69716V1.65649C13.288 1.4947 13.1569 1.36353 12.9951 1.36353C12.8332 1.36353 12.7021 1.4947 12.7021 1.65649V1.7154C12.4431 1.80423 12.251 2.02974 12.198 2.31099C12.1471 2.58063 12.2365 2.84302 12.4313 2.99575C12.6175 3.14184 12.8817 3.2463 13.1395 3.33739C13.307 3.39661 13.3239 3.51723 13.3087 3.60806C13.2872 3.73583 13.1799 3.87376 12.9953 3.87618C12.9953 3.87618 12.9952 3.87618 12.9951 3.87618C12.9942 3.87618 12.9933 3.8763 12.9924 3.8763C12.7827 3.87766 12.7282 3.86899 12.5725 3.7672C12.4371 3.6786 12.2556 3.71657 12.167 3.85196C12.0784 3.98735 12.1164 4.16891 12.2518 4.25751V4.25751Z" fill="#FFD34B"/>
</svg>
