<svg width="20" height="20" viewBox="0 0 20 20" fill="none" xmlns="http://www.w3.org/2000/svg">
<g clip-path="url(#clip0)">
<path d="M8.56523 13.8734L7.46863 14.9779C7.45445 14.9921 7.43824 14.9952 7.42711 14.9952H7.42703C7.41594 14.9952 7.39977 14.9922 7.38559 14.978L6.97828 14.5707C6.86391 14.4563 6.6784 14.4563 6.56398 14.5707C6.44957 14.6851 6.44957 14.8706 6.56398 14.985L6.97129 15.3923C7.09305 15.5141 7.25484 15.5811 7.42699 15.5811H7.42812C7.6007 15.5808 7.76273 15.5132 7.88441 15.3907L8.98105 14.2862C9.09504 14.1714 9.09437 13.9859 8.97957 13.872C8.86469 13.758 8.67926 13.7586 8.56523 13.8734ZM8.97957 5.8957C8.86473 5.78168 8.67926 5.78234 8.56523 5.89719L7.46863 7.0016C7.45445 7.01586 7.43824 7.01887 7.42715 7.01887H7.42703C7.41594 7.01887 7.39977 7.0159 7.38559 7.00176L6.97828 6.59441C6.86391 6.48 6.6784 6.47996 6.56398 6.59437C6.44957 6.70879 6.44957 6.8943 6.56398 7.00867L6.97129 7.41605C7.09305 7.53781 7.25484 7.6048 7.42703 7.6048H7.4282C7.60078 7.60449 7.76281 7.53691 7.88445 7.41441L8.98109 6.31C9.09504 6.1952 9.09437 6.00973 8.97957 5.8957V5.8957ZM8.97957 9.88383C8.86473 9.76984 8.67926 9.77047 8.56523 9.88531L7.46863 10.9897C7.45445 11.004 7.43824 11.007 7.42715 11.007H7.42703C7.41594 11.007 7.39977 11.004 7.38559 10.9899L6.97828 10.5825C6.86391 10.4681 6.6784 10.4681 6.56398 10.5825C6.44957 10.6969 6.44957 10.8824 6.56398 10.9968L6.97129 11.4042C7.09305 11.5259 7.25484 11.5929 7.42703 11.5929H7.4282C7.60078 11.5926 7.76281 11.525 7.88445 11.4025L8.98109 10.2981C9.09504 10.1833 9.09437 9.99785 8.97957 9.88383V9.88383ZM7.14312 5.56816H6.1882C5.83281 5.56816 5.54367 5.8573 5.54367 6.2127V8.32586C5.54367 8.68125 5.83281 8.97039 6.1882 8.97039H8.30137C8.65676 8.97039 8.9459 8.68125 8.9459 8.32586V7.58453C8.9459 7.4227 8.81473 7.29156 8.65293 7.29156C8.49113 7.29156 8.35996 7.4227 8.35996 7.58453V8.32586C8.35996 8.35816 8.33367 8.38445 8.30137 8.38445H6.1882C6.1559 8.38445 6.12961 8.35816 6.12961 8.32586V6.2127C6.12961 6.18039 6.1559 6.1541 6.1882 6.1541H7.14312C7.30492 6.1541 7.43609 6.02297 7.43609 5.86113C7.43609 5.6993 7.30492 5.56816 7.14312 5.56816ZM16.1279 0.601562H14.785C14.6232 0.601562 14.492 0.732695 14.492 0.894531C14.492 1.05637 14.6232 1.1875 14.785 1.1875H16.1279C16.61 1.1875 17.0021 1.57969 17.0021 2.06172V18.5398C17.0021 19.0219 16.61 19.4141 16.1279 19.4141H3.87324C3.39117 19.4141 2.99902 19.0219 2.99902 18.5398V2.06172C2.99902 1.57969 3.39121 1.1875 3.87324 1.1875H6.09211V1.76875H4.06777C3.79898 1.76875 3.58027 1.98746 3.58027 2.25621V14.3208C3.58027 14.4827 3.71145 14.6138 3.87324 14.6138C4.03504 14.6138 4.16621 14.4827 4.16621 14.3208V2.35469H5.55828C5.52621 2.4457 5.50855 2.54344 5.50855 2.64527V3.45785C5.50855 3.94121 5.90176 4.33441 6.38508 4.33441H13.6161C14.0994 4.33441 14.4926 3.94121 14.4926 3.45785V2.64531C14.4926 2.54348 14.4749 2.4457 14.4428 2.35473H15.8349V15.1996H14.3146C13.5096 15.1996 12.8546 15.8547 12.8546 16.6599V18.1805H4.16621V15.4927C4.16621 15.3309 4.03504 15.1998 3.87324 15.1998C3.71145 15.1998 3.58027 15.3309 3.58027 15.4927V18.2789C3.58027 18.5477 3.79898 18.7664 4.06777 18.7664H13.1475C13.2254 18.7665 13.2998 18.735 13.3546 18.6806L13.3553 18.6799L16.3351 15.6997C16.385 15.6496 16.4155 15.5818 16.42 15.5113C16.4202 15.5087 16.4209 2.26285 16.4209 2.25621C16.4209 1.98742 16.2022 1.76875 15.9334 1.76875H13.9091V0.955977C13.9091 0.428867 13.4803 0 12.9532 0H7.04797C6.64609 0 6.3016 0.249453 6.16051 0.601562H3.87324C3.06809 0.601562 2.41309 1.2566 2.41309 2.06172V18.5398C2.41309 19.345 3.06812 20 3.87324 20H16.1279C16.9331 20 17.5881 19.345 17.5881 18.5398V2.06172C17.5881 1.2566 16.9331 0.601562 16.1279 0.601562V0.601562ZM13.4405 17.766V16.6599C13.4405 16.1778 13.8327 15.7856 14.3147 15.7856H15.4207L13.4405 17.766ZM6.67805 0.955977C6.67805 0.751914 6.84398 0.585938 7.04797 0.585938H12.9532C13.1572 0.585938 13.3231 0.751914 13.3231 0.955977V2.03102C13.3231 2.23508 13.1572 2.40105 12.9532 2.40105H7.04797C6.84398 2.40105 6.67805 2.23508 6.67805 2.03102V0.955977ZM6.09449 2.64531C6.09449 2.56363 6.12844 2.48984 6.18285 2.43699C6.33578 2.76164 6.66598 2.98695 7.04797 2.98695H12.9532C13.3352 2.98695 13.6654 2.76164 13.8183 2.43699C13.8727 2.48984 13.9067 2.56363 13.9067 2.64531V3.45789C13.9067 3.61816 13.7763 3.74852 13.6161 3.74852H6.38508C6.22484 3.74852 6.09449 3.61813 6.09449 3.45789V2.64531ZM5.54367 12.314C5.54367 12.6694 5.83281 12.9585 6.1882 12.9585H8.30137C8.65676 12.9585 8.9459 12.6694 8.9459 12.314V11.5727C8.9459 11.4108 8.81473 11.2797 8.65293 11.2797C8.49113 11.2797 8.35996 11.4108 8.35996 11.5727V12.314C8.35996 12.3463 8.33367 12.3726 8.30137 12.3726H6.1882C6.1559 12.3726 6.12961 12.3463 6.12961 12.314V10.2008C6.12961 10.1685 6.1559 10.1422 6.1882 10.1422H7.14312C7.30492 10.1422 7.43609 10.0111 7.43609 9.84926C7.43609 9.68742 7.30492 9.55629 7.14312 9.55629H6.1882C5.83281 9.55629 5.54367 9.84543 5.54367 10.2008V12.314ZM9.98594 14.1304H14.1645C14.3263 14.1304 14.4575 13.9993 14.4575 13.8374C14.4575 13.6756 14.3263 13.5445 14.1645 13.5445H9.98594C9.82414 13.5445 9.69297 13.6756 9.69297 13.8374C9.69297 13.9993 9.82414 14.1304 9.98594 14.1304ZM5.54367 16.3021C5.54367 16.6575 5.83281 16.9466 6.1882 16.9466H8.30137C8.65676 16.9466 8.9459 16.6575 8.9459 16.3021V15.5608C8.9459 15.399 8.81473 15.2679 8.65293 15.2679C8.49113 15.2679 8.35996 15.399 8.35996 15.5608V16.3021C8.35996 16.3344 8.33367 16.3607 8.30137 16.3607H6.1882C6.1559 16.3607 6.12961 16.3344 6.12961 16.3021V14.189C6.12961 14.1567 6.1559 14.1304 6.1882 14.1304H7.14312C7.30492 14.1304 7.43609 13.9993 7.43609 13.8374C7.43609 13.6756 7.30492 13.5445 7.14312 13.5445H6.1882C5.83281 13.5445 5.54367 13.8336 5.54367 14.189V16.3021ZM9.98594 15.3023H12.4067C12.5685 15.3023 12.6997 15.1711 12.6997 15.0093C12.6997 14.8475 12.5685 14.7163 12.4067 14.7163H9.98594C9.82414 14.7163 9.69297 14.8475 9.69297 15.0093C9.69297 15.1711 9.82414 15.3023 9.98594 15.3023V15.3023ZM9.98594 11.3141H12.4067C12.5685 11.3141 12.6997 11.183 12.6997 11.0212C12.6997 10.8593 12.5685 10.7282 12.4067 10.7282H9.98594C9.82414 10.7282 9.69297 10.8593 9.69297 11.0212C9.69297 11.183 9.82414 11.3141 9.98594 11.3141V11.3141ZM9.98594 10.1423H14.1645C14.3263 10.1423 14.4575 10.0111 14.4575 9.8493C14.4575 9.68746 14.3263 9.55633 14.1645 9.55633H9.98594C9.82414 9.55633 9.69297 9.68746 9.69297 9.8493C9.69297 10.0111 9.82414 10.1423 9.98594 10.1423ZM9.98594 7.32598H14.1645C14.3263 7.32598 14.4575 7.19484 14.4575 7.03301C14.4575 6.87117 14.3263 6.74004 14.1645 6.74004H9.98594C9.82414 6.74004 9.69297 6.87117 9.69297 7.03301C9.69297 7.19484 9.82414 7.32598 9.98594 7.32598ZM9.98594 6.1541H14.1645C14.3263 6.1541 14.4575 6.02297 14.4575 5.86113C14.4575 5.6993 14.3263 5.56816 14.1645 5.56816H9.98594C9.82414 5.56816 9.69297 5.6993 9.69297 5.86113C9.69297 6.02297 9.82414 6.1541 9.98594 6.1541Z" fill="#FFDE78"/>
</g>
<defs>
<clipPath id="clip0">
<rect width="20" height="20" fill="white"/>
</clipPath>
</defs>
</svg>
