<svg width="23" height="24" viewBox="0 0 23 24" fill="none" xmlns="http://www.w3.org/2000/svg">
<path d="M15.3611 11.5374L14.3017 12.6667C14.3003 12.2422 14.1411 11.8355 13.859 11.5359C13.5768 11.2362 13.1948 11.068 12.7965 11.0681H8.82131C8.65189 11.0676 8.48406 11.1029 8.32754 11.1721C8.17102 11.2412 8.02892 11.3427 7.90947 11.4708L5.47402 14.0672L5.11642 13.686C5.05867 13.6245 4.98038 13.5899 4.89875 13.5899C4.81712 13.5899 4.73883 13.6245 4.68108 13.686L3.12441 15.3456C3.0958 15.376 3.07311 15.4122 3.05763 15.452C3.04215 15.4918 3.03418 15.5344 3.03418 15.5775C3.03418 15.6206 3.04215 15.6632 3.05763 15.703C3.07311 15.7428 3.0958 15.779 3.12441 15.8094L7.68379 20.6697C7.71235 20.7002 7.74627 20.7244 7.7836 20.7409C7.82094 20.7574 7.86096 20.7659 7.90138 20.7659C7.9418 20.7659 7.98182 20.7574 8.01915 20.7409C8.05649 20.7244 8.0904 20.7002 8.11896 20.6697L9.67581 19.0103C9.7335 18.9487 9.76591 18.8653 9.76591 18.7783C9.76591 18.6912 9.7335 18.6078 9.67581 18.5462L9.40405 18.2565L10.4798 17.1098C10.5165 17.0705 10.5601 17.0394 10.6081 17.0182C10.6561 16.997 10.7075 16.9862 10.7595 16.9864H14.0364C14.2515 16.987 14.4644 16.9421 14.6631 16.8544C14.8617 16.7667 15.0421 16.6378 15.1937 16.4753L19.3905 12.0015C19.4191 11.971 19.4418 11.9348 19.4573 11.895C19.4728 11.8552 19.4808 11.8125 19.4808 11.7694C19.4808 11.7263 19.4728 11.6836 19.4573 11.6438C19.4418 11.604 19.4191 11.5678 19.3905 11.5374C18.8558 10.9686 18.1312 10.6492 17.3758 10.6492C16.6204 10.6492 15.8958 10.9686 15.3611 11.5374V11.5374ZM7.90138 19.9737L3.77733 15.5775L4.89884 14.3814L9.02341 18.7782L7.90138 19.9737ZM14.7576 16.0114C14.6631 16.1127 14.5507 16.193 14.4269 16.2477C14.3032 16.3024 14.1704 16.3304 14.0364 16.3301H10.7595C10.6267 16.3297 10.4951 16.3574 10.3723 16.4116C10.2496 16.4657 10.1382 16.5453 10.0445 16.6457L8.96906 17.7923L5.91393 14.5264L8.34499 11.9347C8.40747 11.8678 8.48177 11.8148 8.56358 11.7787C8.6454 11.7426 8.73311 11.7241 8.82166 11.7243H12.7969C12.9212 11.7243 13.0441 11.7521 13.1578 11.8058C13.2714 11.8596 13.3732 11.9381 13.4566 12.0363C13.54 12.1345 13.6032 12.2503 13.6421 12.3762C13.681 12.502 13.6947 12.6352 13.6824 12.767C13.652 13.0073 13.5397 13.2272 13.3668 13.3848C13.194 13.5424 12.9727 13.6266 12.7454 13.6213H10.8035C10.7218 13.6213 10.6435 13.6559 10.5858 13.7174C10.5281 13.7789 10.4957 13.8624 10.4957 13.9494C10.4957 14.0364 10.5281 14.1199 10.5858 14.1814C10.6435 14.243 10.7218 14.2775 10.8035 14.2775H13.5337C13.6154 14.2775 13.6937 14.2429 13.7515 14.1814L15.7964 12.0015C16.1779 11.5958 16.684 11.3506 17.2215 11.3109C17.759 11.2712 18.292 11.4396 18.7223 11.7853L14.7576 16.0114Z" fill="#FFDE78"/>
<path d="M8.24805 6.44197C8.24805 7.07638 8.42452 7.69653 8.75516 8.22402C9.0858 8.75151 9.55575 9.16263 10.1056 9.40541C10.6554 9.64818 11.2604 9.7117 11.8441 9.58794C12.4278 9.46417 12.964 9.15868 13.3848 8.71009C13.8056 8.2615 14.0922 7.68996 14.2083 7.06774C14.3244 6.44553 14.2648 5.80059 14.0371 5.21448C13.8093 4.62837 13.4237 4.12741 12.9288 3.77495C12.434 3.4225 11.8522 3.23437 11.2571 3.23438C10.4593 3.23537 9.69451 3.57363 9.1304 4.17495C8.5663 4.77628 8.24898 5.59157 8.24805 6.44197V6.44197ZM13.6505 6.44197C13.6505 6.94658 13.5101 7.43986 13.2471 7.85942C12.9842 8.27899 12.6104 8.606 12.173 8.7991C11.7357 8.99221 11.2544 9.04273 10.7902 8.94429C10.3259 8.84585 9.89942 8.60285 9.5647 8.24604C9.22997 7.88923 9.00202 7.43463 8.90967 6.93971C8.81732 6.4448 8.86472 5.93181 9.04587 5.46562C9.22702 4.99942 9.53379 4.60096 9.92738 4.32061C10.321 4.04027 10.7837 3.89063 11.2571 3.89063C11.8916 3.89143 12.5 4.16048 12.9487 4.63878C13.3974 5.11708 13.6498 5.76556 13.6505 6.44197Z" fill="#FFDE78"/>
<path d="M10.9499 4.73772V4.93216C10.737 4.97454 10.5467 5.1001 10.4161 5.28426C10.2855 5.46842 10.2241 5.6979 10.2439 5.92779C10.2637 6.15768 10.3633 6.3714 10.5231 6.52712C10.683 6.68284 10.8917 6.76934 11.1082 6.76968H11.4073C11.4407 6.76968 11.4738 6.7767 11.5047 6.79033C11.5355 6.80397 11.5636 6.82395 11.5872 6.84915C11.6109 6.87434 11.6296 6.90425 11.6424 6.93717C11.6552 6.97009 11.6618 7.00537 11.6618 7.041C11.6618 7.07663 11.6552 7.11191 11.6424 7.14482C11.6296 7.17774 11.6109 7.20765 11.5872 7.23285C11.5636 7.25804 11.5355 7.27802 11.5047 7.29166C11.4738 7.30529 11.4407 7.31231 11.4073 7.31231H10.6949C10.6132 7.31231 10.5349 7.34688 10.4772 7.40842C10.4195 7.46995 10.3871 7.55342 10.3871 7.64044C10.3871 7.72747 10.4195 7.81093 10.4772 7.87246C10.5349 7.934 10.6132 7.96857 10.6949 7.96857H10.9499V8.14595C10.9499 8.23297 10.9824 8.31643 11.0401 8.37797C11.0978 8.4395 11.1761 8.47407 11.2577 8.47407C11.3394 8.47407 11.4177 8.4395 11.4754 8.37797C11.5331 8.31643 11.5656 8.23297 11.5656 8.14595V7.95188C11.7784 7.9095 11.9688 7.78394 12.0994 7.59978C12.23 7.41563 12.2914 7.18614 12.2716 6.95625C12.2518 6.72637 12.1522 6.51264 11.9923 6.35692C11.8325 6.2012 11.6238 6.1147 11.4073 6.11436H11.1082C11.0743 6.11531 11.0404 6.109 11.0088 6.0958C10.9771 6.0826 10.9483 6.06277 10.9239 6.03749C10.8996 6.01221 10.8803 5.98199 10.867 5.94861C10.8538 5.91523 10.847 5.87937 10.847 5.84314C10.847 5.80691 10.8538 5.77105 10.867 5.73767C10.8803 5.70429 10.8996 5.67407 10.9239 5.64879C10.9483 5.62351 10.9771 5.60368 11.0088 5.59048C11.0404 5.57728 11.0743 5.57097 11.1082 5.57192H11.8206C11.9022 5.57192 11.9805 5.53735 12.0383 5.47581C12.096 5.41428 12.1284 5.33081 12.1284 5.24379C12.1284 5.15676 12.096 5.0733 12.0383 5.01177C11.9805 4.95023 11.9022 4.91566 11.8206 4.91566H11.5656V4.73828C11.5656 4.65126 11.5331 4.5678 11.4754 4.50626C11.4177 4.44473 11.3394 4.41016 11.2577 4.41016C11.1761 4.41016 11.0978 4.44473 11.0401 4.50626C10.9824 4.5678 10.9499 4.65126 10.9499 4.73828V4.73772Z" fill="#FFDE78"/>
</svg>
