<svg width="20" height="20" viewBox="0 0 20 20" fill="none" xmlns="http://www.w3.org/2000/svg">
<path d="M19.9142 3.95917L16.063 0.0863122C16.0081 0.0310755 15.9336 0 15.8559 0H14.2938C14.1319 0 14.0008 0.131924 14.0008 0.294648C14.0008 0.457372 14.1319 0.589296 14.2938 0.589296H15.5628V2.76898C15.5628 3.7027 16.3181 4.46235 17.2465 4.46235H19.4141V14.6932C19.4141 15.1176 19.1702 15.4954 18.8101 15.6791C18.7255 13.7843 17.1665 12.269 15.262 12.269C13.3181 12.269 11.7341 13.8478 11.7106 15.7974H11.1763V11.7831H15.2316C15.3935 11.7831 15.5246 11.6512 15.5246 11.4884C15.5246 11.3257 15.3935 11.1938 15.2316 11.1938H11.1763V10.5117H15.2316C15.3935 10.5117 15.5246 10.3797 15.5246 10.217C15.5246 10.0543 15.3935 9.92237 15.2316 9.92237H11.1763V9.24024H15.2316C15.3935 9.24024 15.5246 9.10832 15.5246 8.94559C15.5246 8.78287 15.3935 8.65094 15.2316 8.65094H11.1183C11.0643 8.40772 10.9737 8.17837 10.8525 7.96885H15.2317C15.3935 7.96885 15.5246 7.83693 15.5246 7.67421C15.5246 7.51148 15.3935 7.37956 15.2317 7.37956H10.3746C9.95094 6.99911 9.39266 6.76724 8.78137 6.76724H6.30391V1.69324C6.30391 1.08454 6.79629 0.589296 7.4016 0.589296H13.1273C13.2892 0.589296 13.4203 0.457372 13.4203 0.294648C13.4203 0.131924 13.2892 0 13.1273 0H7.40156C6.4732 0 5.71793 0.759603 5.71793 1.69324V6.76724H2.39496C1.07438 6.76724 0 7.84777 0 9.17593V17.5913C0 18.9195 1.07438 20 2.39496 20H8.78137C10.102 20 11.1763 18.9195 11.1763 17.5913V16.3866H11.7515C12.0134 18.0985 13.4879 19.4135 15.2621 19.4135C17.059 19.4135 18.5482 18.0645 18.7819 16.3206C19.4903 16.1154 20 15.4528 20 14.6931V4.1675C20 4.08936 19.9691 4.0144 19.9142 3.95917V3.95917ZM10.5904 17.5913C10.5904 18.5945 9.77887 19.4107 8.78133 19.4107H2.39496C1.39742 19.4107 0.585938 18.5945 0.585938 17.5913V9.17593C0.585938 8.17271 1.39742 7.35654 2.39496 7.35654H8.78137C9.77887 7.35654 10.5904 8.17271 10.5904 9.17593V17.5913H10.5904ZM15.262 18.8242C13.6266 18.8242 12.296 17.4861 12.296 15.8413C12.296 14.1965 13.6266 12.8583 15.262 12.8583C16.8975 12.8583 18.228 14.1965 18.228 15.8413C18.228 17.4861 16.8975 18.8242 15.262 18.8242V18.8242ZM16.1487 2.76898V1.00585L18.9998 3.87301H17.2465C16.6412 3.87301 16.1487 3.37777 16.1487 2.76898Z" fill="#FFD34B"/>
<path d="M8.78086 8.33887H2.39453C1.93574 8.33887 1.5625 8.71425 1.5625 9.17567V10.5743C1.5625 10.9902 1.89875 11.3286 2.31211 11.3286H3.03203C3.19387 11.3286 3.325 11.1966 3.325 11.0339C3.325 10.8712 3.19387 10.7393 3.03203 10.7393H2.31211C2.22184 10.7393 2.14844 10.6653 2.14844 10.5743V9.17567C2.14844 9.03919 2.25883 8.92816 2.39453 8.92816H8.78086C8.91676 8.92816 9.02738 9.03919 9.02738 9.17567V10.5743C9.02738 10.6653 8.95395 10.7393 8.86371 10.7393H4.20234C4.04051 10.7393 3.90938 10.8712 3.90938 11.0339C3.90938 11.1966 4.04051 11.3286 4.20234 11.3286H8.86367C9.27703 11.3286 9.61328 10.9902 9.61328 10.5743V9.17567C9.61328 8.71425 9.23988 8.33887 8.78086 8.33887V8.33887Z" fill="#FFD34B"/>
<path d="M8.86383 12.2021H2.31215C1.89879 12.2021 1.5625 12.5404 1.5625 12.9561V17.5911C1.5625 18.0527 1.93578 18.4283 2.39461 18.4283H8.78102C9.24004 18.4283 9.61348 18.0527 9.61348 17.5911V12.9561C9.61344 12.5404 9.27719 12.2021 8.86383 12.2021V12.2021ZM9.0275 12.9561V14.0799H7.78313V12.7914H8.86383C8.95406 12.7914 9.0275 12.8653 9.0275 12.9561ZM3.97879 14.6692H5.295V15.9613H3.97879V14.6692ZM3.39285 15.9613H2.14844V14.6692H3.39285V15.9613ZM5.29504 14.0799H3.97883V12.7914H5.29504V14.0799ZM5.88098 12.7914H7.19719V14.0799H5.88098V12.7914ZM5.29504 16.5506V17.839H3.97883V16.5506H5.29504ZM5.88098 16.5506H7.19719V17.839H5.88098V16.5506ZM5.88098 15.9613V14.6692H7.19719V15.9613H5.88098ZM7.78313 14.6692H9.0275V15.9613H7.78313V14.6692ZM2.31215 12.7914H3.39285V14.0799H2.14844V12.9561C2.14844 12.8653 2.22187 12.7914 2.31215 12.7914ZM2.14844 17.5911V16.5506H3.39285V17.839H2.39461C2.25887 17.839 2.14844 17.7278 2.14844 17.5911ZM8.78102 17.839H7.78313V16.5506H9.0275V17.5911C9.0275 17.7278 8.91691 17.839 8.78102 17.839Z" fill="#FFD34B"/>
<path d="M15.6423 15.5476C15.3876 15.457 15.106 15.3478 14.9488 15.2237C14.9021 15.1868 14.8821 15.1011 14.8991 15.0103C14.9076 14.9646 14.9476 14.8119 15.1023 14.765C15.3967 14.6758 15.5897 14.8277 15.6108 14.8453C15.7351 14.9493 15.9199 14.9323 16.0234 14.8072C16.1269 14.6822 16.11 14.4964 15.9855 14.3923C15.941 14.3551 15.7806 14.2326 15.5367 14.1763V14.0698C15.5367 13.9071 15.4056 13.7751 15.2438 13.7751C15.0819 13.7751 14.9508 13.9071 14.9508 14.0698V14.1958C14.945 14.1975 14.9392 14.199 14.9333 14.2007C14.6202 14.2956 14.3865 14.564 14.3233 14.9011C14.2651 15.2118 14.3662 15.5131 14.5872 15.6874C14.7677 15.8298 15.0168 15.9502 15.447 16.1031C15.7251 16.202 15.7191 16.428 15.7036 16.5206C15.672 16.7095 15.5141 16.9135 15.2418 16.9154C14.9717 16.9172 14.8872 16.9038 14.68 16.7674C14.5445 16.6783 14.363 16.7165 14.2744 16.8526C14.1858 16.9888 14.2238 17.1715 14.3592 17.2605C14.5837 17.4082 14.7501 17.4694 14.9509 17.4923V17.6126C14.9509 17.7753 15.082 17.9072 15.2438 17.9072C15.4057 17.9072 15.5368 17.7753 15.5368 17.6126V17.463C15.9541 17.3425 16.2213 16.978 16.2814 16.6182C16.361 16.1421 16.1042 15.7118 15.6423 15.5476Z" fill="#FFD34B"/>
<path d="M7.92285 3.86423C7.92285 4.02695 8.05398 4.15888 8.21582 4.15888H14.2956C14.4574 4.15888 14.5885 4.02695 14.5885 3.86423C14.5885 3.7015 14.4574 3.56958 14.2956 3.56958H8.21582C8.05398 3.56958 7.92285 3.7015 7.92285 3.86423V3.86423Z" fill="#FFD34B"/>
<path d="M16.5566 7.96869H17.492C17.6538 7.96869 17.785 7.83677 17.785 7.67404C17.785 7.51132 17.6538 7.37939 17.492 7.37939H16.5566C16.3948 7.37939 16.2637 7.51132 16.2637 7.67404C16.2637 7.83677 16.3948 7.96869 16.5566 7.96869Z" fill="#FFD34B"/>
<path d="M16.5566 9.24042H17.492C17.6538 9.24042 17.785 9.1085 17.785 8.94577C17.785 8.78305 17.6538 8.65112 17.492 8.65112H16.5566C16.3948 8.65112 16.2637 8.78305 16.2637 8.94577C16.2637 9.1085 16.3948 9.24042 16.5566 9.24042Z" fill="#FFD34B"/>
<path d="M16.5566 10.5117H17.492C17.6538 10.5117 17.785 10.3797 17.785 10.217C17.785 10.0543 17.6538 9.92236 17.492 9.92236H16.5566C16.3948 9.92236 16.2637 10.0543 16.2637 10.217C16.2637 10.3797 16.3948 10.5117 16.5566 10.5117Z" fill="#FFD34B"/>
<path d="M16.5566 11.7831H17.492C17.6538 11.7831 17.785 11.6512 17.785 11.4885C17.785 11.3258 17.6538 11.1938 17.492 11.1938H16.5566C16.3948 11.1938 16.2637 11.3258 16.2637 11.4885C16.2637 11.6512 16.3948 11.7831 16.5566 11.7831Z" fill="#FFD34B"/>
</svg>
