<svg id="Capa_1" enable-background="new 0 0 512 512" height="512" viewBox="0 0 512 512" width="512" xmlns="http://www.w3.org/2000/svg"><g><g><path d="m476.164 241.77h-106.577c-2.639 0-5.209.295-7.687.839v-178.21c0-5.523-4.478-10-10-10h-73.04c-5.522 0-10 4.477-10 10v244.886h-4.213c-5.522 0-10 4.477-10 10s4.478 10 10 10h4.213v152.154h-30.495v-70.144h4.217c5.522 0 10-4.477 10-10s-4.478-10-10-10h-4.217v-160.198c0-5.523-4.478-10-10-10h-73.036c-5.522 0-10 4.477-10 10v160.199h-4.217c-5.522 0-10 4.477-10 10s4.478 10 10 10h4.217v70.144h-30.5v-113.749h4.218c5.522 0 10-4.477 10-10s-4.478-10-10-10h-4.218v-186.773c0-5.523-4.478-10-10-10h-73.035c-5.522 0-10 4.477-10 10s4.478 10 10 10h63.035v176.773h-53.035v-107.08c0-5.523-4.478-10-10-10s-10 4.477-10 10v107.08h-4.218c-5.522 0-10 4.477-10 10s4.478 10 10 10h4.218v113.748h-11.794c-5.522 0-10 4.477-10 10s4.478 10 10 10h446.901c5.522 0 10-4.477 10-10s-4.478-10-10-10h-95.001v-71.019h114.264c19.76 0 35.836-16.076 35.836-35.836v-96.978c0-19.76-16.076-35.836-35.836-35.836zm-187.304-167.371h53.04v180.469c-5.225 6.363-8.15 14.506-8.15 22.741v31.676h-44.89zm-70.495 166.698v150.199h-53.036v-150.199zm-176.571 240.342v-113.748h53.035v113.748zm123.535 0v-70.144h53.036v70.144zm176.571 0h-53.04v-152.15h44.89v28.346l-26.497 36.958c-4.653 6.49.143 15.828 8.129 15.828h26.518zm150.1-106.855c0 8.732-7.104 15.836-15.836 15.836l-141.307-.001 17.021-23.741c1.218-1.699 1.873-3.736 1.873-5.827v-83.245c0-8.61 7.227-15.836 15.836-15.836h106.577c8.732 0 15.836 7.104 15.836 15.836z"/><path d="m178.277 93.73h27.14c5.652 0 10.25 4.598 10.25 10.25v5.256c0 5.652-4.598 10.25-10.25 10.25h-27.14c-4.504 0-8.545-3.009-9.828-7.318-1.575-5.292-7.142-8.308-12.438-6.731-5.293 1.576-8.307 7.145-6.73 12.438 3.788 12.724 15.712 21.611 28.996 21.611h3.569v7.086c0 5.523 4.478 10 10 10s10-4.477 10-10v-7.086h3.57c16.68 0 30.25-13.57 30.25-30.25v-5.256c0-16.68-13.57-30.25-30.25-30.25h-27.14c-5.652 0-10.25-4.598-10.25-10.25v-6.699c0-5.652 4.598-10.25 10.25-10.25h27.14c4.85 0 9.072 3.438 10.041 8.173 1.107 5.411 6.39 8.902 11.801 7.792 5.411-1.106 8.9-6.39 7.793-11.801-2.864-14.002-15.327-24.165-29.635-24.165h-3.57v-7.086c0-5.523-4.478-10-10-10s-10 4.477-10 10v7.086h-3.569c-16.68 0-30.25 13.57-30.25 30.25v6.699c0 16.681 13.571 30.251 30.25 30.251z"/><path d="m388.34 302.514c2.096 5.031 8.005 7.493 13.05 5.41 5.035-2.079 7.511-8.023 5.42-13.06-2.089-5.033-8.034-7.494-13.069-5.41-5.027 2.08-7.493 8.038-5.401 13.06z"/><path d="m455.59 346.034c-1.641-3.94-5.708-6.463-9.972-6.145-4.343.324-8.054 3.529-9.014 7.775-1.968 8.706 8.195 15.528 15.508 10.366 3.772-2.663 5.259-7.724 3.478-11.996z"/><path d="m440.015 291.618-51.169 51.168c-3.905 3.905-3.905 10.237 0 14.143 1.953 1.953 4.512 2.929 7.071 2.929s5.118-.977 7.071-2.929l51.169-51.168c3.905-3.905 3.905-10.237 0-14.142-3.905-3.906-10.235-3.906-14.142-.001z"/><path d="m511.229 488.753c-2.096-5.03-8.017-7.497-13.06-5.41-5.038 2.085-7.479 8.036-5.4 13.06 2.085 5.038 8.012 7.49 13.05 5.41 5.06-2.089 7.477-8.015 5.41-13.06z"/><path d="m22.56 202.974c2.095 5.029 8.018 7.503 13.061 5.41 5.027-2.087 7.5-8.026 5.41-13.06-2.089-5.032-8.025-7.496-13.061-5.41-5.028 2.081-7.507 8.028-5.41 13.06z"/></g></g></svg>