<svg width="146" height="146" viewBox="0 0 146 146" fill="none" xmlns="http://www.w3.org/2000/svg">
<path d="M128.945 146H107.558C104.021 146 101.142 143.121 101.142 139.584V121.072C97.7317 123.91 94.1139 126.417 90.9627 128.421C83.0447 133.457 73.9029 137.892 67.6722 139.72C66.9961 139.918 66.2804 139.918 65.6037 139.72C59.3736 137.892 50.2318 133.457 42.3139 128.421C35.4367 124.046 26.334 117.28 22.0244 109.886C9.74102 88.8122 5.41406 34.1691 5.41406 24.0472C5.41406 22.4806 6.17172 21.0802 7.39162 20.3927C18.5478 14.1033 37.5828 7.43573 63.9678 0.576301C64.7528 0.372129 66.0457 0 66.6385 0C67.2314 0 68.524 0.372129 69.309 0.576301C90.8526 6.17734 107.619 11.6988 119.144 16.9873C120.217 17.4801 120.688 18.7496 120.195 19.8229C119.703 20.8962 118.433 21.3668 117.36 20.8746C106.063 15.6904 89.534 10.2539 68.2328 4.71563C67.5325 4.5337 66.9938 4.3934 66.6385 4.29816C66.2827 4.39369 65.744 4.5337 65.0439 4.71563C32.914 13.0693 17.2215 19.7987 9.69312 24.0059C9.69198 24.0187 9.69141 24.0327 9.69141 24.0475C9.69141 33.5794 14.0569 87.7226 25.7198 107.733C28.7447 112.923 35.4536 118.989 44.6094 124.812C52.1443 129.604 60.7632 133.81 66.6383 135.566C72.5136 133.81 81.1327 129.604 88.6671 124.812C97.8229 118.989 104.532 112.923 107.557 107.733C107.601 107.657 107.645 107.581 107.689 107.504H107.558C106.043 107.504 104.648 106.976 103.549 106.094C97.6119 115.509 78.3536 126.95 67.3677 130.828C67.1977 130.89 67.0175 130.931 66.8307 130.948C66.8302 130.948 66.829 130.948 66.8273 130.948C66.762 130.954 66.6973 130.956 66.6306 130.956C66.6291 130.956 66.628 130.956 66.6266 130.956C66.3568 130.955 66.0987 130.904 65.8615 130.811C57.4679 127.838 43.9084 120.391 35.2343 112.403C34.3651 111.603 34.3095 110.25 35.1094 109.381C35.9101 108.512 37.2626 108.457 38.1315 109.256C45.2279 115.791 56.4134 122.324 64.4982 125.697L64.4987 69.0072H23.1006C25.5176 82.8273 28.8454 96.1062 33.1107 103.424C33.7056 104.445 33.3605 105.754 32.3399 106.349C31.3197 106.944 30.0102 106.599 29.4154 105.578C18.8595 87.4677 14.6329 39.728 14.0788 27.9348C14.0389 27.0841 14.5077 26.2906 15.2722 25.915C26.271 20.5101 43.3558 14.7762 66.0543 8.87264C66.2236 8.82473 66.4016 8.79707 66.5852 8.79251H66.5901H66.5904C66.622 8.79194 66.6548 8.79194 66.6864 8.79251H66.691C66.8752 8.79707 67.0537 8.82473 67.2237 8.87292C89.9218 14.7765 107.006 20.5101 118.005 25.915C118.769 26.2906 119.238 27.0844 119.198 27.935C119.104 29.9317 118.954 32.268 118.757 34.7888H123.019C123.433 29.4136 123.585 25.7573 123.585 24.0472C123.585 24.0258 123.584 24.0059 123.582 23.9891C122.71 23.3606 122.432 22.1635 122.972 21.2051C123.552 20.1765 124.855 19.8124 125.885 20.3924C127.105 21.0799 127.863 22.4803 127.863 24.0469C127.863 25.8026 127.713 29.4792 127.306 34.8181C128.318 34.9881 129.088 35.8675 129.088 36.9272C129.088 38.1086 128.131 39.0658 126.949 39.0658H107.558C106.379 39.0658 105.42 40.0251 105.42 41.2045V62.5912C105.42 63.7706 106.379 64.7299 107.558 64.7299H128.945C130.125 64.7299 131.084 63.7706 131.084 62.5912V47.3151L120.486 57.9132C119.65 58.7485 118.296 58.7479 117.461 57.9132L110.324 50.7755C109.488 49.94 109.488 48.5861 110.324 47.7508C111.159 46.9162 112.513 46.9156 113.348 47.7508L118.974 53.3767L136.935 35.4153C137.77 34.5803 139.124 34.5803 139.96 35.4153C140.795 36.2508 140.795 37.6047 139.96 38.4399L135.361 43.0381V62.5915C135.361 66.1292 132.483 69.0075 128.945 69.0075H123.188C122.946 70.4575 122.697 71.8865 122.442 73.2849H126.949C128.131 73.2849 129.088 74.2421 129.088 75.4235C129.088 76.6049 128.131 77.5622 126.949 77.5622H107.558C106.379 77.5622 105.42 78.5215 105.42 79.7009C105.42 79.7009 105.431 101.338 105.452 101.459C105.46 101.494 105.467 101.529 105.473 101.565C105.691 102.515 106.543 103.226 107.558 103.226H128.945C130.125 103.226 131.084 102.267 131.084 101.088V85.8115L120.486 96.4096C119.65 97.2446 118.296 97.2446 117.461 96.4096L110.324 89.2719C109.488 88.4364 109.488 87.0824 110.324 86.2472C111.159 85.4123 112.513 85.412 113.348 86.2472L118.974 91.8731L136.935 73.9116C137.77 73.0767 139.124 73.0767 139.96 73.9116C140.795 74.7471 140.795 76.1011 139.96 76.9363L135.361 81.5344V101.088C135.361 104.626 132.483 107.504 128.945 107.504H112.54C112.116 108.346 111.685 109.144 111.252 109.886C110.881 110.523 110.474 111.155 110.037 111.781H126.949C128.131 111.781 129.088 112.739 129.088 113.92C129.088 115.101 128.131 116.059 126.949 116.059H107.558C106.379 116.059 105.42 117.018 105.42 118.197V139.584C105.42 140.763 106.379 141.723 107.558 141.723H128.945C130.125 141.723 131.084 140.763 131.084 139.584V124.308L120.486 134.906C119.65 135.741 118.296 135.741 117.461 134.906L110.324 127.768C109.488 126.933 109.488 125.579 110.324 124.744C111.159 123.909 112.513 123.908 113.348 124.744L118.974 130.369L136.935 112.408C137.77 111.573 139.124 111.573 139.96 112.408C140.795 113.244 140.795 114.597 139.96 115.433L135.361 120.031V139.584C135.361 143.121 132.483 146 128.945 146V146ZM68.7764 69.0075L68.7758 125.706C80.3859 120.91 95.9301 110.692 100.166 103.424C100.498 102.854 100.831 102.234 101.16 101.576C101.148 101.415 101.142 101.252 101.142 101.088V79.7009C101.142 76.1632 104.021 73.2849 107.558 73.2849H109.383C109.649 71.893 109.91 70.4638 110.165 69.0075H68.7764ZM113.737 73.2849H118.093C118.351 71.889 118.604 70.4604 118.851 69.0075H114.506C114.256 70.461 113.999 71.8896 113.737 73.2849ZM68.7764 64.7302H101.509C101.271 64.0609 101.142 63.3409 101.142 62.5915V41.2048C101.142 37.6671 104.021 34.7888 107.558 34.7888H114.467C114.627 32.7622 114.757 30.8533 114.852 29.1444C107.366 25.6099 93.5311 20.2578 68.7772 13.7029L68.7764 64.7302ZM22.3831 64.7302H64.499L64.4996 13.7029C39.746 20.2578 25.91 25.6105 18.4237 29.1447C18.89 37.6038 20.2017 51.157 22.3831 64.7302V64.7302ZM123.782 24.1174C123.783 24.1177 123.784 24.1182 123.784 24.1185C123.784 24.1182 123.783 24.1177 123.782 24.1174Z" fill="#FFD34B"/>
</svg>
