<svg width="512" height="512" viewBox="0 0 512 512" fill="none" xmlns="http://www.w3.org/2000/svg">
<path d="M104 496H136C138.122 496 140.157 495.157 141.657 493.657C143.157 492.157 144 490.122 144 488V480.8L295.2 496C295.472 496 295.736 496.04 296 496.04C297.238 496.054 298.462 495.78 299.576 495.24L442.168 423.936C448.314 420.822 453.078 415.527 455.526 409.086C457.975 402.646 457.933 395.523 455.408 389.112C454.16 385.613 452.182 382.42 449.604 379.745C447.025 377.07 443.907 374.975 440.456 373.6C435.901 372.13 431.087 371.64 426.329 372.161C421.571 372.682 416.977 374.203 412.848 376.624L333.48 405.488C331.517 401.458 328.464 398.059 324.667 395.675C320.871 393.291 316.483 392.018 312 392H144V384C144 381.878 143.157 379.844 141.657 378.343C140.157 376.843 138.122 376 136 376H104C101.878 376 99.8434 376.843 98.3431 378.343C96.8429 379.844 96 381.878 96 384V392H64C61.8783 392 59.8434 392.843 58.3431 394.343C56.8429 395.844 56 397.878 56 400V472C56 474.122 56.8429 476.157 58.3431 477.657C59.8434 479.157 61.8783 480 64 480H96V488C96 490.122 96.8429 492.157 98.3431 493.657C99.8434 495.157 101.878 496 104 496ZM144 408H312C314.122 408 316.157 408.843 317.657 410.343C319.157 411.844 320 413.878 320 416C320 418.122 319.157 420.157 317.657 421.657C316.157 423.157 314.122 424 312 424H232V440H312C317.328 439.986 322.5 438.199 326.7 434.921C330.901 431.643 333.891 427.061 335.2 421.896L418.76 391.496C419.047 391.395 419.327 391.278 419.6 391.144C424.126 388.307 429.589 387.373 434.8 388.544C436.161 389.142 437.38 390.022 438.377 391.125C439.374 392.228 440.126 393.53 440.584 394.944C441.642 397.628 441.66 400.61 440.635 403.306C439.609 406.002 437.614 408.218 435.04 409.52L294.496 479.816L144 464.8V408ZM112 392H128V480H112V392ZM72 464V408H96V464H72Z" fill="#FDD75F"/>
<path d="M192 176V216H184C181.878 216 179.843 216.843 178.343 218.343C176.843 219.843 176 221.878 176 224V264H168C165.878 264 163.843 264.843 162.343 266.343C160.843 267.843 160 269.878 160 272V320C160 322.122 160.843 324.157 162.343 325.657C163.843 327.157 165.878 328 168 328H176V368C176 370.122 176.843 372.157 178.343 373.657C179.843 375.157 181.878 376 184 376H344C346.122 376 348.157 375.157 349.657 373.657C351.157 372.157 352 370.122 352 368V320C352 317.878 351.157 315.843 349.657 314.343C348.157 312.843 346.122 312 344 312H336V280H344C346.122 280 348.157 279.157 349.657 277.657C351.157 276.157 352 274.122 352 272V232H360C362.122 232 364.157 231.157 365.657 229.657C367.157 228.157 368 226.122 368 224V176C368 173.878 367.157 171.843 365.657 170.343C364.157 168.843 362.122 168 360 168H200C197.878 168 195.843 168.843 194.343 170.343C192.843 171.843 192 173.878 192 176ZM176 312V280H192V296H208V280H224V296H240V280H256V296H272V280H288V296H304V280H320V312H176ZM336 360H192V328H208V344H224V328H240V344H256V328H272V344H288V328H304V344H320V328H336V360ZM208 184H224V200H240V184H256V200H272V184H288V200H304V184H320V200H336V184H352V216H208V184ZM224 248V232H240V248H256V232H272V248H288V232H304V248H320V232H336V264H192V232H208V248H224Z" fill="#FDD75F"/>
<path d="M229.656 58.344C228.156 56.8442 226.122 56.0017 224 56.0017C221.879 56.0017 219.844 56.8442 218.344 58.344L122.344 154.344C120.844 155.844 120.002 157.879 120.002 160C120.002 162.121 120.844 164.156 122.344 165.656L146.344 189.656C147.844 191.156 149.879 191.998 152 191.998C154.122 191.998 156.156 191.156 157.656 189.656L224 123.312L266.344 165.656C267.844 167.156 269.879 167.998 272 167.998C274.122 167.998 276.156 167.156 277.656 165.656L360 83.312L378.344 101.656C379.463 102.774 380.888 103.536 382.44 103.845C383.992 104.153 385.6 103.995 387.061 103.389C388.523 102.784 389.772 101.759 390.651 100.444C391.531 99.1284 392 97.582 392 96V24C392 21.8783 391.157 19.8434 389.657 18.3431C388.157 16.8429 386.122 16 384 16H312C310.418 16.0003 308.872 16.4697 307.557 17.3488C306.241 18.2279 305.216 19.4772 304.611 20.9388C304.005 22.4004 303.847 24.0086 304.156 25.5603C304.464 27.1119 305.226 28.5372 306.344 29.656L324.688 48L272 100.688L229.656 58.344ZM341.656 53.656C343.156 52.1558 343.999 50.1213 343.999 48C343.999 45.8787 343.156 43.8442 341.656 42.344L331.312 32H376V76.688L365.656 66.344C364.156 64.8442 362.122 64.0017 360 64.0017C357.879 64.0017 355.844 64.8442 354.344 66.344L272 148.688L229.656 106.344C228.156 104.844 226.122 104.002 224 104.002C221.879 104.002 219.844 104.844 218.344 106.344L152 172.688L139.312 160L224 75.312L266.344 117.656C267.844 119.156 269.879 119.998 272 119.998C274.122 119.998 276.156 119.156 277.656 117.656L341.656 53.656Z" fill="#FDD75F"/>
</svg>
